<svg id="Layer_1" data-name="Layer 1" xmlns="http://www.w3.org/2000/svg" xmlns:xlink="http://www.w3.org/1999/xlink" viewBox="0 0 40.23 49.5"><defs><style>.cls-1{fill:url(#linear-gradient);}.cls-2{fill:url(#linear-gradient-2);}.cls-3{fill:url(#linear-gradient-3);}.cls-4{fill:url(#linear-gradient-4);}.cls-5{fill:url(#linear-gradient-5);}.cls-6{fill:url(#linear-gradient-6);}.cls-7{fill:url(#linear-gradient-7);}.cls-8{fill:url(#linear-gradient-8);}.cls-9{fill:url(#linear-gradient-9);}.cls-10{fill:url(#linear-gradient-10);}.cls-11{fill:url(#linear-gradient-11);}.cls-12,.cls-13,.cls-14,.cls-15,.cls-16,.cls-17{fill:none;stroke-miterlimit:10;stroke-width:0.6px;}.cls-12{stroke:url(#linear-gradient-12);}.cls-13{stroke:url(#linear-gradient-13);}.cls-14{stroke:url(#linear-gradient-14);}.cls-15{stroke:url(#linear-gradient-15);}.cls-16{stroke:url(#linear-gradient-16);}.cls-17{stroke:url(#linear-gradient-17);}</style><linearGradient id="linear-gradient" x1="22.72" y1="67.04" x2="22.72" y2="62.17" gradientUnits="userSpaceOnUse"><stop offset="0" stop-color="#1a71aa"/><stop offset="1" stop-color="#803588"/></linearGradient><linearGradient id="linear-gradient-2" x1="25.96" y1="67.04" x2="25.96" y2="62.17" xlink:href="#linear-gradient"/><linearGradient id="linear-gradient-3" x1="30.14" y1="67.04" x2="30.14" y2="62.17" xlink:href="#linear-gradient"/><linearGradient id="linear-gradient-4" x1="33.85" y1="67.04" x2="33.85" y2="62.17" xlink:href="#linear-gradient"/><linearGradient id="linear-gradient-5" x1="37.63" y1="67.04" x2="37.63" y2="62.14" xlink:href="#linear-gradient"/><linearGradient id="linear-gradient-6" x1="41.63" y1="67.04" x2="41.63" y2="62.17" xlink:href="#linear-gradient"/><linearGradient id="linear-gradient-7" x1="45.84" y1="67.11" x2="45.84" y2="62.09" xlink:href="#linear-gradient"/><linearGradient id="linear-gradient-8" x1="49.92" y1="67.04" x2="49.92" y2="62.17" xlink:href="#linear-gradient"/><linearGradient id="linear-gradient-9" x1="52.58" y1="67.04" x2="52.58" y2="62.17" xlink:href="#linear-gradient"/><linearGradient id="linear-gradient-10" x1="55.93" y1="67.12" x2="55.93" y2="62.09" xlink:href="#linear-gradient"/><linearGradient id="linear-gradient-11" x1="60.81" y1="67.04" x2="60.81" y2="62.17" xlink:href="#linear-gradient"/><linearGradient id="linear-gradient-12" x1="41.39" y1="57.03" x2="41.39" y2="33.18" xlink:href="#linear-gradient"/><linearGradient id="linear-gradient-13" x1="41.52" y1="46.23" x2="41.52" y2="40.09" xlink:href="#linear-gradient"/><linearGradient id="linear-gradient-14" x1="44.21" y1="47.12" x2="44.21" y2="43.54" xlink:href="#linear-gradient"/><linearGradient id="linear-gradient-15" x1="36.39" y1="54.19" x2="36.39" y2="47.37" xlink:href="#linear-gradient"/><linearGradient id="linear-gradient-16" x1="46.84" y1="49.58" x2="46.84" y2="46.24" xlink:href="#linear-gradient"/><linearGradient id="linear-gradient-17" x1="41.41" y1="43.11" x2="41.41" y2="17.62" xlink:href="#linear-gradient"/></defs><title>1</title><path class="cls-1" d="M23,62.17V67h-.63V62.17Z" transform="translate(-22.41 -17.62)"/><path class="cls-2" d="M24.13,67V62.17h.69l1.56,2.46a13.8,13.8,0,0,1,.87,1.58h0c-.06-.65-.07-1.24-.07-2v-2h.59V67h-.64l-1.55-2.47a15.45,15.45,0,0,1-.91-1.63h0c0,.61.05,1.2.05,2V67Z" transform="translate(-22.41 -17.62)"/><path class="cls-3" d="M29.81,62.71H28.33v-.53h3.61v.53H30.45V67h-.64Z" transform="translate(-22.41 -17.62)"/><path class="cls-4" d="M35,64.76H33.11v1.76h2.11V67H32.48V62.17h2.63v.53h-2v1.54H35Z" transform="translate(-22.41 -17.62)"/><path class="cls-5" d="M36,62.24a6.57,6.57,0,0,1,1.21-.1,2,2,0,0,1,1.41.4,1.21,1.21,0,0,1,.38.92,1.28,1.28,0,0,1-.92,1.24v0a1.21,1.21,0,0,1,.71,1A7.76,7.76,0,0,0,39.21,67h-.65a6.28,6.28,0,0,1-.33-1.16c-.14-.67-.4-.92-1-.95h-.59V67H36Zm.63,2.22h.64c.67,0,1.1-.37,1.1-.92s-.46-.9-1.12-.91a2.59,2.59,0,0,0-.62.06Z" transform="translate(-22.41 -17.62)"/><path class="cls-6" d="M40.75,65.51,40.25,67H39.6l1.65-4.87H42L43.67,67H43l-.52-1.53Zm1.6-.49-.48-1.4c-.11-.32-.18-.61-.25-.89h0c-.07.29-.15.59-.25.88L40.88,65Z" transform="translate(-22.41 -17.62)"/><path class="cls-7" d="M47.68,66.88a3.12,3.12,0,0,1-1.29.23A2.28,2.28,0,0,1,44,64.65a2.42,2.42,0,0,1,2.54-2.56,2.61,2.61,0,0,1,1.16.22l-.15.51a2.29,2.29,0,0,0-1-.2,1.81,1.81,0,0,0-1.9,2,1.77,1.77,0,0,0,1.87,2,2.52,2.52,0,0,0,1-.2Z" transform="translate(-22.41 -17.62)"/><path class="cls-8" d="M49.6,62.71H48.12v-.53h3.61v.53H50.24V67H49.6Z" transform="translate(-22.41 -17.62)"/><path class="cls-9" d="M52.9,62.17V67h-.63V62.17Z" transform="translate(-22.41 -17.62)"/><path class="cls-10" d="M58.16,64.56a2.28,2.28,0,0,1-2.26,2.57,2.23,2.23,0,0,1-2.19-2.47A2.31,2.31,0,0,1,56,62.09,2.22,2.22,0,0,1,58.16,64.56Zm-3.78.08c0,1,.56,2,1.55,2s1.56-.92,1.56-2-.51-2-1.55-2S54.38,63.57,54.38,64.64Z" transform="translate(-22.41 -17.62)"/><path class="cls-11" d="M59,67V62.17h.69l1.56,2.46a13.8,13.8,0,0,1,.87,1.58h0c-.06-.65-.07-1.24-.07-2v-2h.59V67H62l-1.55-2.47a15.45,15.45,0,0,1-.91-1.63h0c0,.61.05,1.2.05,2V67Z" transform="translate(-22.41 -17.62)"/><g id="Interaction"><g id="Finger_Pointing" data-name="Finger Pointing"><path class="cls-12" d="M35,56.73a.42.42,0,0,1-.37-.23c-.42-.8-1.75-3.51-1.4-4.53a15.72,15.72,0,0,0-.44-3.16A5,5,0,0,1,33,46.19a5.72,5.72,0,0,0,.14-.6c0-.11,0-.34-.06-.61-.18-1.48-.25-2.4.31-2.65a3.09,3.09,0,0,1,2.63.79,4.7,4.7,0,0,1,.91,3c0,.32,0,.62.09.87a41,41,0,0,0,1-7.33c.05-.6.11-1.2.16-1.75.28-3,1.15-4.51,2.49-4.43,1.74.13,1.62,2.48,1.51,4.76-.07,1.4-.15,3,.29,3.57a.25.25,0,0,0,.12,0c.55.08,1.06.3,1.82,2.15l.22,0a1.48,1.48,0,0,1,1.26.61l1.13,1.92a4.34,4.34,0,0,1,2.48,1.23c.73.73.65,3,.36,4.67-.26,1.52-.78,3.92-.78,3.94a.42.42,0,0,1-.81-.17s.52-2.4.77-3.91c.38-2.22.15-3.66-.12-3.94a3.47,3.47,0,0,0-2.15-1H46.6l-.12-.2-1.23-2.11c-.09-.14-.31-.18-.62-.21s-.72-.07-.87-.44c-.67-1.66-1-1.71-1.22-1.74a.9.9,0,0,1-.66-.36c-.62-.82-.54-2.42-.46-4.11s.19-3.81-.74-3.89c-.74-.06-1.38,1.39-1.6,3.68-.05.56-.11,1.14-.16,1.75-.32,3.6-.65,7.31-1.6,8.59l-.19.26-.3-.12c-.18-.08-.32-.25-.53-1a7,7,0,0,1-.17-1.31,4.1,4.1,0,0,0-.67-2.48,2.71,2.71,0,0,0-1.63-.64,8.46,8.46,0,0,0,.1,1.8c0,.32.07.58.07.71a3.74,3.74,0,0,1-.17.81,5.3,5.3,0,0,0-.3,2.12A12.88,12.88,0,0,1,34,52.24c-.16.47.58,2.38,1.35,3.88a.42.42,0,0,1-.37.61Z" transform="translate(-22.41 -17.62)"/><path class="cls-13" d="M41.23,45.92a.42.42,0,0,1-.42-.42A8.76,8.76,0,0,1,41,44.4a23.45,23.45,0,0,0,.43-3.6.42.42,0,0,1,.83,0,24,24,0,0,1-.44,3.74c-.07.42-.15.85-.15,1A.42.42,0,0,1,41.23,45.92Z" transform="translate(-22.41 -17.62)"/><path class="cls-14" d="M44.19,46.82h-.1a.42.42,0,0,1-.31-.5,3.61,3.61,0,0,0,0-1.56c0-.14,0-.29-.06-.45a.42.42,0,0,1,.82-.1c0,.15,0,.28.06.42a4.41,4.41,0,0,1,0,1.87A.42.42,0,0,1,44.19,46.82Z" transform="translate(-22.41 -17.62)"/><path class="cls-15" d="M35.79,53.89a.42.42,0,0,1-.42-.42A25,25,0,0,1,36.59,48a.42.42,0,0,1,.79.26,23.1,23.1,0,0,0-1.17,5.26A.42.42,0,0,1,35.79,53.89Z" transform="translate(-22.41 -17.62)"/><path class="cls-16" d="M46.77,49.28h-.1a.42.42,0,0,1-.3-.5A3.59,3.59,0,0,0,46.43,47a.42.42,0,0,1,.82-.14A4.41,4.41,0,0,1,47.17,49,.42.42,0,0,1,46.77,49.28Z" transform="translate(-22.41 -17.62)"/></g><path class="cls-17" d="M57.87,37.17a3.09,3.09,0,0,0-4.3.8,3.17,3.17,0,0,0-.18.31l-8.2-2.53a4.91,4.91,0,0,0-.74-3.6l8.19-6.94.2.15a3.1,3.1,0,1,0-.93-1l-8.19,6.95a5,5,0,0,0-.57-.46,4.89,4.89,0,0,0-4.62-.5L34.73,23.4a3.1,3.1,0,1,0-1,.55l3.81,6.92a4.85,4.85,0,0,0-2,3.57l-5.78.19a3.11,3.11,0,1,0,0,1.14l5.78-.19A4.89,4.89,0,0,0,37,38.39L37,37.8c.45-4.71,2.3-5.6,3.76-5.52,2.93.23,2.77,3.57,2.65,6l0,.38a4.86,4.86,0,0,0,1-1,4.91,4.91,0,0,0,.44-.79l8.2,2.53a3.09,3.09,0,1,0,4.82-2.2Z" transform="translate(-22.41 -17.62)"/></g></svg>