<svg id="Layer_1" data-name="Layer 1" xmlns="http://www.w3.org/2000/svg" xmlns:xlink="http://www.w3.org/1999/xlink" viewBox="0 0 101.3 85.26"><defs><style>.cls-1{fill:url(#linear-gradient);}.cls-2{fill:url(#linear-gradient-2);}.cls-3{fill:url(#linear-gradient-3);}.cls-4{fill:url(#linear-gradient-4);}.cls-5{fill:url(#linear-gradient-5);}.cls-6{fill:url(#linear-gradient-6);}.cls-7{fill:url(#linear-gradient-7);}.cls-8{fill:url(#linear-gradient-8);}.cls-9{fill:url(#linear-gradient-9);}.cls-10{fill:url(#linear-gradient-10);}.cls-11{fill:url(#linear-gradient-11);}.cls-12{fill:url(#linear-gradient-12);}.cls-13{fill:url(#linear-gradient-13);}.cls-14{fill:url(#linear-gradient-14);}.cls-15{fill:url(#linear-gradient-15);}.cls-16,.cls-17,.cls-18,.cls-19,.cls-20,.cls-21,.cls-22,.cls-23,.cls-24,.cls-25,.cls-26,.cls-27,.cls-28,.cls-29{fill:none;stroke-miterlimit:10;}.cls-16{stroke:url(#linear-gradient-16);}.cls-17{stroke:url(#linear-gradient-17);}.cls-18{stroke:url(#linear-gradient-18);}.cls-19{stroke:url(#linear-gradient-19);}.cls-20{stroke:url(#linear-gradient-20);}.cls-21{stroke:url(#linear-gradient-21);}.cls-22{stroke:url(#linear-gradient-22);}.cls-23{stroke:url(#linear-gradient-23);}.cls-24{stroke:url(#linear-gradient-24);}.cls-25{stroke:url(#linear-gradient-25);}.cls-26{stroke:url(#linear-gradient-26);}.cls-27{stroke:url(#linear-gradient-27);}.cls-28{stroke:url(#linear-gradient-28);}.cls-29{stroke:url(#linear-gradient-29);}</style><linearGradient id="linear-gradient" x1="13.62" y1="94.88" x2="13.62" y2="86.8" gradientUnits="userSpaceOnUse"><stop offset="0" stop-color="#1a71aa"/><stop offset="1" stop-color="#803588"/></linearGradient><linearGradient id="linear-gradient-2" x1="21.16" y1="94.88" x2="21.16" y2="86.8" xlink:href="#linear-gradient"/><linearGradient id="linear-gradient-3" x1="29.45" y1="94.95" x2="29.45" y2="86.74" xlink:href="#linear-gradient"/><linearGradient id="linear-gradient-4" x1="35.68" y1="94.88" x2="35.68" y2="86.8" xlink:href="#linear-gradient"/><linearGradient id="linear-gradient-5" x1="42.63" y1="94.95" x2="42.63" y2="86.74" xlink:href="#linear-gradient"/><linearGradient id="linear-gradient-6" x1="50.62" y1="94.95" x2="50.62" y2="86.74" xlink:href="#linear-gradient"/><linearGradient id="linear-gradient-7" x1="57.57" y1="94.88" x2="57.57" y2="86.8" xlink:href="#linear-gradient"/><linearGradient id="linear-gradient-8" x1="64.51" y1="94.95" x2="64.51" y2="86.74" xlink:href="#linear-gradient"/><linearGradient id="linear-gradient-9" x1="75.05" y1="94.95" x2="75.05" y2="86.74" xlink:href="#linear-gradient"/><linearGradient id="linear-gradient-10" x1="82" y1="94.88" x2="82" y2="86.8" xlink:href="#linear-gradient"/><linearGradient id="linear-gradient-11" x1="88.21" y1="94.88" x2="88.21" y2="86.8" xlink:href="#linear-gradient"/><linearGradient id="linear-gradient-12" x1="92.95" y1="94.88" x2="92.95" y2="86.8" xlink:href="#linear-gradient"/><linearGradient id="linear-gradient-13" x1="97.89" y1="95" x2="97.89" y2="86.67" xlink:href="#linear-gradient"/><linearGradient id="linear-gradient-14" x1="104.53" y1="94.88" x2="104.53" y2="86.8" xlink:href="#linear-gradient"/><linearGradient id="linear-gradient-15" x1="110.2" y1="95" x2="110.2" y2="86.67" xlink:href="#linear-gradient"/><linearGradient id="linear-gradient-16" x1="42.57" y1="16" x2="42.57" y2="10" xlink:href="#linear-gradient"/><linearGradient id="linear-gradient-17" x1="51.57" y1="16" x2="51.57" y2="0" xlink:href="#linear-gradient"/><linearGradient id="linear-gradient-18" x1="42.57" y1="70" x2="42.57" y2="58" xlink:href="#linear-gradient"/><linearGradient id="linear-gradient-19" x1="51.57" y1="67" x2="51.57" y2="58" xlink:href="#linear-gradient"/><linearGradient id="linear-gradient-20" x1="79.07" y1="39" x2="79.07" y2="35" xlink:href="#linear-gradient"/><linearGradient id="linear-gradient-21" x1="77.57" y1="48" x2="77.57" y2="44" xlink:href="#linear-gradient"/><linearGradient id="linear-gradient-22" x1="22.07" y1="39" x2="22.07" y2="35" xlink:href="#linear-gradient"/><linearGradient id="linear-gradient-23" x1="25.07" y1="48" x2="25.07" y2="44" xlink:href="#linear-gradient"/><linearGradient id="linear-gradient-24" x1="61.92" y1="65.74" x2="61.92" y2="27.74" xlink:href="#linear-gradient"/><linearGradient id="linear-gradient-25" x1="35.36" y1="41.67" x2="35.36" y2="33.73" xlink:href="#linear-gradient"/><linearGradient id="linear-gradient-26" x1="71.71" y1="83.36" x2="71.71" y2="67.74" xlink:href="#linear-gradient"/><linearGradient id="linear-gradient-27" x1="89.36" y1="41.67" x2="89.36" y2="33.73" xlink:href="#linear-gradient"/><linearGradient id="linear-gradient-28" x1="71.71" y1="25.74" x2="71.71" y2="13.34" xlink:href="#linear-gradient"/><linearGradient id="linear-gradient-29" x1="50.07" y1="46" x2="50.07" y2="27" xlink:href="#linear-gradient"/></defs><title>10</title><path class="cls-1" d="M15.54,91.09H12.39V94h3.5v.88H11.35V86.8h4.37v.88H12.39v2.55h3.14Z" transform="translate(-11.35 -9.74)"/><path class="cls-2" d="M24.07,91.33c-.06-1.13-.13-2.48-.12-3.49h0c-.28.95-.61,2-1,3.07l-1.43,3.92h-.79L19.37,91c-.38-1.14-.71-2.18-.94-3.14h0c0,1-.08,2.36-.16,3.57L18,94.88H17l.56-8.08h1.33l1.38,3.91c.34,1,.61,1.88.82,2.72h0c.2-.82.49-1.7.85-2.72l1.44-3.91h1.33l.5,8.08h-1Z" transform="translate(-11.35 -9.74)"/><path class="cls-3" d="M26.9,86.9a10.09,10.09,0,0,1,1.91-.17,3.34,3.34,0,0,1,2.22.59,1.69,1.69,0,0,1,.67,1.43,1.92,1.92,0,0,1-1.37,1.77v0a2.08,2.08,0,0,1,1.67,2,2.18,2.18,0,0,1-.68,1.62,4.06,4.06,0,0,1-2.79.76,12.23,12.23,0,0,1-1.62-.1Zm1,3.31h.95c1.1,0,1.75-.58,1.75-1.36,0-.95-.72-1.32-1.77-1.32a4.46,4.46,0,0,0-.92.07Zm0,3.87a5.56,5.56,0,0,0,.88,0c1.08,0,2.07-.4,2.07-1.57S29.95,91,28.81,91h-.86Z" transform="translate(-11.35 -9.74)"/><path class="cls-4" d="M37.59,91.09H34.45V94H38v.88H33.41V86.8h4.37v.88H34.45v2.55h3.14Z" transform="translate(-11.35 -9.74)"/><path class="cls-5" d="M39.31,86.9a14.91,14.91,0,0,1,2.22-.17,4.63,4.63,0,0,1,3.27,1,3.72,3.72,0,0,1,1.14,2.9,4.28,4.28,0,0,1-1.16,3.14A5,5,0,0,1,41.21,95a16.94,16.94,0,0,1-1.89-.1Zm1,7.15a6.61,6.61,0,0,0,1.06.06,3.11,3.11,0,0,0,3.44-3.43c0-1.91-1.07-3.12-3.27-3.12a5.93,5.93,0,0,0-1.22.11Z" transform="translate(-11.35 -9.74)"/><path class="cls-6" d="M47.3,86.9a14.91,14.91,0,0,1,2.22-.17,4.63,4.63,0,0,1,3.27,1,3.72,3.72,0,0,1,1.14,2.9,4.28,4.28,0,0,1-1.16,3.14A5,5,0,0,1,49.2,95a16.93,16.93,0,0,1-1.89-.1Zm1,7.15a6.61,6.61,0,0,0,1.06.06,3.11,3.11,0,0,0,3.44-3.43c0-1.91-1.07-3.12-3.27-3.12a5.93,5.93,0,0,0-1.22.11Z" transform="translate(-11.35 -9.74)"/><path class="cls-7" d="M59.48,91.09H56.34V94h3.5v.88H55.29V86.8h4.37v.88H56.34v2.55h3.14Z" transform="translate(-11.35 -9.74)"/><path class="cls-8" d="M61.2,86.9a14.91,14.91,0,0,1,2.22-.17,4.63,4.63,0,0,1,3.27,1,3.72,3.72,0,0,1,1.14,2.9,4.28,4.28,0,0,1-1.16,3.14A5,5,0,0,1,63.09,95a16.93,16.93,0,0,1-1.89-.1Zm1,7.15a6.61,6.61,0,0,0,1.06.06,3.11,3.11,0,0,0,3.44-3.43c0-1.91-1.07-3.12-3.27-3.12a5.93,5.93,0,0,0-1.22.11Z" transform="translate(-11.35 -9.74)"/><path class="cls-9" d="M71.73,86.9A14.91,14.91,0,0,1,74,86.74a4.63,4.63,0,0,1,3.27,1,3.72,3.72,0,0,1,1.14,2.9,4.28,4.28,0,0,1-1.16,3.14A5,5,0,0,1,73.63,95a16.94,16.94,0,0,1-1.9-.1Zm1,7.15a6.61,6.61,0,0,0,1.06.06,3.11,3.11,0,0,0,3.44-3.43c0-1.91-1.07-3.12-3.27-3.12a5.93,5.93,0,0,0-1.22.11Z" transform="translate(-11.35 -9.74)"/><path class="cls-10" d="M83.91,91.09H80.77V94h3.5v.88H79.72V86.8h4.37v.88H80.77v2.55h3.14Z" transform="translate(-11.35 -9.74)"/><path class="cls-11" d="M87.51,94.88,84.87,86.8H86l1.26,4c.35,1.09.65,2.08.86,3h0c.23-.94.56-2,.92-3l1.37-4h1.12l-2.89,8.08Z" transform="translate(-11.35 -9.74)"/><path class="cls-12" d="M93.48,86.8v8.08h-1V86.8Z" transform="translate(-11.35 -9.74)"/><path class="cls-13" d="M100.95,94.62a5.17,5.17,0,0,1-2.13.38,3.78,3.78,0,0,1-4-4.09A4,4,0,0,1,99,86.67,4.33,4.33,0,0,1,101,87l-.25.85a3.79,3.79,0,0,0-1.63-.34,3,3,0,0,0-3.15,3.33A2.94,2.94,0,0,0,99,94.13a4.19,4.19,0,0,0,1.7-.34Z" transform="translate(-11.35 -9.74)"/><path class="cls-14" d="M106.45,91.09H103.3V94h3.5v.88h-4.55V86.8h4.37v.88H103.3v2.55h3.14Z" transform="translate(-11.35 -9.74)"/><path class="cls-15" d="M108,93.61a3.7,3.7,0,0,0,1.87.53c1.07,0,1.69-.56,1.69-1.38s-.43-1.19-1.52-1.61c-1.32-.47-2.14-1.15-2.14-2.29a2.33,2.33,0,0,1,2.61-2.19,3.68,3.68,0,0,1,1.79.4l-.29.85a3.22,3.22,0,0,0-1.54-.38c-1.1,0-1.52.66-1.52,1.21,0,.76.49,1.13,1.61,1.56,1.37.53,2.06,1.19,2.06,2.37S111.73,95,109.82,95a4.17,4.17,0,0,1-2.06-.52Z" transform="translate(-11.35 -9.74)"/><g id="Embedded_Devices" data-name="Embedded Devices"><rect class="cls-16" x="41.07" y="10.5" width="3" height="5"/><rect class="cls-17" x="50.07" y="0.5" width="3" height="15"/><rect class="cls-18" x="41.07" y="58.5" width="3" height="11"/><rect class="cls-19" x="50.07" y="58.5" width="3" height="8"/><rect class="cls-20" x="72.07" y="35.5" width="14" height="3"/><rect class="cls-21" x="72.07" y="44.5" width="11" height="3"/><rect class="cls-22" x="14.07" y="35.5" width="16" height="3"/><rect class="cls-23" x="21.07" y="44.5" width="8" height="3"/><path class="cls-24" d="M75.09,28.24H48.75a5.33,5.33,0,0,0-5.33,5.33V59.9a5.33,5.33,0,0,0,5.33,5.33H75.09a5.33,5.33,0,0,0,5.33-5.33V33.57A5.33,5.33,0,0,0,75.09,28.24Zm.72,35H49a2.61,2.61,0,0,1-2.61-2.61V33.85A2.61,2.61,0,0,1,49,31.24H75.81a2.61,2.61,0,0,1,2.61,2.61V60.62A2.61,2.61,0,0,1,75.81,63.24Z" transform="translate(-11.35 -9.74)"/><path class="cls-25" d="M32.78,34.23a3.47,3.47,0,0,0,0,6.95A3.62,3.62,0,0,0,36,39.24h5.45v-3H36A3.55,3.55,0,0,0,32.78,34.23Z" transform="translate(-11.35 -9.74)"/><path class="cls-26" d="M73.42,76.19v-8h-3v8a3.43,3.43,0,0,0-2.18,3.19,3.47,3.47,0,1,0,6.95,0A3.85,3.85,0,0,0,73.42,76.19Z" transform="translate(-11.35 -9.74)"/><path class="cls-27" d="M91.83,41.17a3.47,3.47,0,0,0,0-6.95,3.56,3.56,0,0,0-3.2,2H83.42v3h5.21A3.62,3.62,0,0,0,91.83,41.17Z" transform="translate(-11.35 -9.74)"/><path class="cls-28" d="M70.42,20.51v4.73h3V20.51a3.86,3.86,0,0,0,1.76-3.2,3.47,3.47,0,0,0-6.95,0A3.43,3.43,0,0,0,70.42,20.51Z" transform="translate(-11.35 -9.74)"/><rect class="cls-29" x="41.07" y="27.5" width="18" height="18"/></g></svg>