<svg id="Layer_1" data-name="Layer 1" xmlns="http://www.w3.org/2000/svg" xmlns:xlink="http://www.w3.org/1999/xlink" viewBox="0 0 60.32 79.08"><defs><style>.cls-1{fill:url(#linear-gradient);}.cls-2{fill:url(#linear-gradient-2);}.cls-3{fill:url(#linear-gradient-3);}.cls-4{fill:url(#linear-gradient-4);}.cls-5{fill:url(#linear-gradient-5);}.cls-6{fill:url(#linear-gradient-6);}.cls-7{fill:url(#linear-gradient-7);}.cls-8{fill:url(#linear-gradient-8);}.cls-9{fill:url(#linear-gradient-9);}.cls-10,.cls-11,.cls-12,.cls-13,.cls-14,.cls-15,.cls-16,.cls-17,.cls-18,.cls-19,.cls-20,.cls-21,.cls-22,.cls-23,.cls-24,.cls-25,.cls-26,.cls-27,.cls-28,.cls-29,.cls-30,.cls-31{fill:none;stroke-miterlimit:10;}.cls-10{stroke:url(#linear-gradient-10);}.cls-11{stroke:url(#linear-gradient-11);}.cls-12{stroke:url(#linear-gradient-12);}.cls-13{stroke:url(#linear-gradient-13);}.cls-14{stroke:url(#linear-gradient-14);}.cls-15{stroke:url(#linear-gradient-15);}.cls-16{stroke:url(#linear-gradient-16);}.cls-17{stroke:url(#linear-gradient-17);}.cls-18{stroke:url(#linear-gradient-18);}.cls-19{stroke:url(#linear-gradient-19);}.cls-20{stroke:url(#linear-gradient-20);}.cls-21{stroke:url(#linear-gradient-21);}.cls-22{stroke:url(#linear-gradient-22);}.cls-23{stroke:url(#linear-gradient-23);}.cls-24{stroke:url(#linear-gradient-24);}.cls-25{stroke:url(#linear-gradient-25);}.cls-26{stroke:url(#linear-gradient-26);}.cls-27{stroke:url(#linear-gradient-27);}.cls-28{stroke:url(#linear-gradient-28);}.cls-29{stroke:url(#linear-gradient-29);}.cls-30{stroke:url(#linear-gradient-30);}.cls-31{stroke:url(#linear-gradient-31);}</style><linearGradient id="linear-gradient" x1="33.37" y1="89.85" x2="33.37" y2="81.76" gradientUnits="userSpaceOnUse"><stop offset="0" stop-color="#1a71aa"/><stop offset="1" stop-color="#803588"/></linearGradient><linearGradient id="linear-gradient-2" x1="40.19" y1="89.85" x2="40.19" y2="81.76" xlink:href="#linear-gradient"/><linearGradient id="linear-gradient-3" x1="45.97" y1="89.93" x2="45.97" y2="81.68" xlink:href="#linear-gradient"/><linearGradient id="linear-gradient-4" x1="54.1" y1="89.98" x2="54.1" y2="81.63" xlink:href="#linear-gradient"/><linearGradient id="linear-gradient-5" x1="61.79" y1="89.85" x2="61.79" y2="81.7" xlink:href="#linear-gradient"/><linearGradient id="linear-gradient-6" x1="66.13" y1="89.85" x2="66.13" y2="81.76" xlink:href="#linear-gradient"/><linearGradient id="linear-gradient-7" x1="70.55" y1="89.85" x2="70.55" y2="81.76" xlink:href="#linear-gradient"/><linearGradient id="linear-gradient-8" x1="77.45" y1="89.85" x2="77.45" y2="81.76" xlink:href="#linear-gradient"/><linearGradient id="linear-gradient-9" x1="86.18" y1="89.85" x2="86.18" y2="81.76" xlink:href="#linear-gradient"/><linearGradient id="linear-gradient-10" x1="13.26" y1="24" x2="13.26" y2="23" xlink:href="#linear-gradient"/><linearGradient id="linear-gradient-11" x1="12.76" y1="25" x2="12.76" y2="21" xlink:href="#linear-gradient"/><linearGradient id="linear-gradient-12" x1="30.26" y1="24" x2="30.26" y2="23" xlink:href="#linear-gradient"/><linearGradient id="linear-gradient-13" x1="30.26" y1="25" x2="30.26" y2="21" xlink:href="#linear-gradient"/><linearGradient id="linear-gradient-14" x1="14.26" y1="30" x2="14.26" y2="29" xlink:href="#linear-gradient"/><linearGradient id="linear-gradient-15" x1="14.26" y1="32" x2="14.26" y2="28" xlink:href="#linear-gradient"/><linearGradient id="linear-gradient-16" x1="30.76" y1="30" x2="30.76" y2="29" xlink:href="#linear-gradient"/><linearGradient id="linear-gradient-17" x1="30.76" y1="32" x2="30.76" y2="28" xlink:href="#linear-gradient"/><linearGradient id="linear-gradient-18" x1="54.75" y1="69.9" x2="54.75" y2="22.9" xlink:href="#linear-gradient"/><linearGradient id="linear-gradient-19" x1="65.75" y1="57.9" x2="65.75" y2="10.9" xlink:href="#linear-gradient"/><linearGradient id="linear-gradient-20" x1="18.76" y1="37" x2="18.76" y2="36" xlink:href="#linear-gradient"/><linearGradient id="linear-gradient-21" x1="18.26" y1="39" x2="18.26" y2="35" xlink:href="#linear-gradient"/><linearGradient id="linear-gradient-22" x1="35.76" y1="37" x2="35.76" y2="36" xlink:href="#linear-gradient"/><linearGradient id="linear-gradient-23" x1="35.76" y1="39" x2="35.76" y2="35" xlink:href="#linear-gradient"/><linearGradient id="linear-gradient-24" x1="18.26" y1="44" x2="18.26" y2="43" xlink:href="#linear-gradient"/><linearGradient id="linear-gradient-25" x1="17.76" y1="46" x2="17.76" y2="42" xlink:href="#linear-gradient"/><linearGradient id="linear-gradient-26" x1="35.26" y1="44" x2="35.26" y2="43" xlink:href="#linear-gradient"/><linearGradient id="linear-gradient-27" x1="35.26" y1="46" x2="35.26" y2="42" xlink:href="#linear-gradient"/><linearGradient id="linear-gradient-28" x1="14.26" y1="51" x2="14.26" y2="50" xlink:href="#linear-gradient"/><linearGradient id="linear-gradient-29" x1="14.26" y1="53" x2="14.26" y2="49" xlink:href="#linear-gradient"/><linearGradient id="linear-gradient-30" x1="30.76" y1="51" x2="30.76" y2="50" xlink:href="#linear-gradient"/><linearGradient id="linear-gradient-31" x1="30.76" y1="53" x2="30.76" y2="49" xlink:href="#linear-gradient"/></defs><title>11</title><path class="cls-1" d="M31.9,87.3l-.84,2.54H30l2.75-8.08H34l2.76,8.08H35.63l-.86-2.54Zm2.65-.82-.79-2.33c-.18-.53-.3-1-.42-1.48h0c-.12.48-.25,1-.41,1.46l-.79,2.34Z" transform="translate(-29.98 -10.9)"/><path class="cls-2" d="M37.94,81.76h1V89h3.45v.88h-4.5Z" transform="translate(-29.98 -10.9)"/><path class="cls-3" d="M49.29,89.49a7.53,7.53,0,0,1-2.48.44,3.8,3.8,0,0,1-4.15-4.08A4.05,4.05,0,0,1,47,81.68,5,5,0,0,1,49,82l-.25.85A4.19,4.19,0,0,0,47,82.55a3,3,0,0,0-3.25,3.25,3,3,0,0,0,3.12,3.26,3.4,3.4,0,0,0,1.39-.22V86.44H46.63V85.6h2.66Z" transform="translate(-29.98 -10.9)"/><path class="cls-4" d="M57.8,85.72C57.8,88.5,56.11,90,54,90s-3.63-1.65-3.63-4.1,1.6-4.25,3.75-4.25S57.8,83.32,57.8,85.72Zm-6.27.13c0,1.73.93,3.27,2.58,3.27s2.59-1.52,2.59-3.36c0-1.61-.84-3.29-2.58-3.29S51.52,84.08,51.52,85.85Z" transform="translate(-29.98 -10.9)"/><path class="cls-5" d="M59.16,81.87a10.87,10.87,0,0,1,2-.17,3.31,3.31,0,0,1,2.34.66,2,2,0,0,1,.64,1.54A2.12,2.12,0,0,1,62.61,86v0a2,2,0,0,1,1.19,1.63,12.82,12.82,0,0,0,.62,2.22H63.34a10.48,10.48,0,0,1-.54-1.93c-.24-1.12-.67-1.54-1.62-1.57h-1v3.5h-1Zm1,3.68h1.07c1.12,0,1.82-.61,1.82-1.54s-.75-1.5-1.86-1.51a4.3,4.3,0,0,0-1,.1Z" transform="translate(-29.98 -10.9)"/><path class="cls-6" d="M66.66,81.76v8.08h-1V81.76Z" transform="translate(-29.98 -10.9)"/><path class="cls-7" d="M70,82.65H67.56v-.89h6v.89H71.07v7.2H70Z" transform="translate(-29.98 -10.9)"/><path class="cls-8" d="M75.49,81.76v3.38H79.4V81.76h1.06v8.08H79.4V86.06H75.49v3.79h-1V81.76Z" transform="translate(-29.98 -10.9)"/><path class="cls-9" d="M89.08,86.3c-.06-1.13-.13-2.48-.12-3.49h0c-.28.95-.61,2-1,3.07L86.48,89.8h-.79l-1.31-3.85c-.38-1.14-.71-2.18-.94-3.14h0c0,1-.08,2.36-.16,3.57L83,89.85h-1l.56-8.08h1.33l1.38,3.91c.34,1,.61,1.88.82,2.72h0c.2-.82.49-1.7.85-2.72l1.44-3.91H89.8l.5,8.08h-1Z" transform="translate(-29.98 -10.9)"/><g id="Software_Development" data-name="Software Development"><line class="cls-10" x1="9.26" y1="23.5" x2="17.26" y2="23.5"/><rect class="cls-11" x="8.26" y="21.5" width="9" height="3"/><line class="cls-12" x1="20.26" y1="23.5" x2="40.26" y2="23.5"/><rect class="cls-13" x="20.26" y="21.5" width="20" height="3"/><line class="cls-14" x1="9.26" y1="29.5" x2="19.26" y2="29.5"/><rect class="cls-15" x="9.26" y="28.5" width="10" height="3"/><line class="cls-16" x1="21.26" y1="29.5" x2="40.26" y2="29.5"/><rect class="cls-17" x="21.26" y="28.5" width="19" height="3"/><path class="cls-18" d="M68.45,23.4H41a5.8,5.8,0,0,0-5.8,5.8V63.6A5.8,5.8,0,0,0,41,69.4h27.4a5.8,5.8,0,0,0,5.8-5.8V29.2A5.8,5.8,0,0,0,68.45,23.4ZM47.21,24.46a1.64,1.64,0,1,1-1.64,1.64A1.64,1.64,0,0,1,47.21,24.46Zm-4.94,0a1.64,1.64,0,1,1-1.64,1.64A1.64,1.64,0,0,1,42.28,24.46ZM68.07,67.4H40.42a4.17,4.17,0,0,1-4.17-4.17V28.4h36V63.23A4.17,4.17,0,0,1,68.07,67.4Z" transform="translate(-29.98 -10.9)"/><path class="cls-19" d="M83.63,11.4H52a5.8,5.8,0,0,0-5.8,5.8v4.2h2v-5h36V51.64c-.4,2.3-2.27,4.17-4.58,3.76H75.25v2h8.38a1.62,1.62,0,0,0,1.62-1.62V13A1.62,1.62,0,0,0,83.63,11.4ZM53.78,15.55a1.64,1.64,0,1,1,1.64-1.64A1.64,1.64,0,0,1,53.78,15.55Zm4.94,0a1.64,1.64,0,1,1,1.64-1.64A1.64,1.64,0,0,1,58.71,15.55Z" transform="translate(-29.98 -10.9)"/><line class="cls-20" x1="9.26" y1="36.5" x2="28.26" y2="36.5"/><rect class="cls-21" x="8.26" y="35.5" width="20" height="3"/><line class="cls-22" x1="31.26" y1="36.5" x2="40.26" y2="36.5"/><rect class="cls-23" x="31.26" y="35.5" width="9" height="3"/><line class="cls-24" x1="9.26" y1="43.5" x2="27.26" y2="43.5"/><rect class="cls-25" x="8.26" y="42.5" width="19" height="3"/><line class="cls-26" x1="30.26" y1="43.5" x2="40.26" y2="43.5"/><rect class="cls-27" x="30.26" y="42.5" width="10" height="3"/><line class="cls-28" x1="9.26" y1="50.5" x2="19.26" y2="50.5"/><rect class="cls-29" x="9.26" y="49.5" width="10" height="3"/><line class="cls-30" x1="21.26" y1="50.5" x2="40.26" y2="50.5"/><rect class="cls-31" x="21.26" y="49.5" width="19" height="3"/></g></svg>