<svg id="Layer_1" data-name="Layer 1" xmlns="http://www.w3.org/2000/svg" xmlns:xlink="http://www.w3.org/1999/xlink" viewBox="0 0 42.92 83.14"><defs><style>.cls-1{fill:url(#linear-gradient);}.cls-2{fill:url(#linear-gradient-2);}.cls-3{fill:url(#linear-gradient-3);}.cls-4{fill:url(#linear-gradient-4);}.cls-5{fill:url(#linear-gradient-5);}.cls-6{fill:url(#linear-gradient-6);}.cls-10,.cls-11,.cls-12,.cls-13,.cls-14,.cls-15,.cls-16,.cls-7,.cls-8,.cls-9{fill:none;stroke-miterlimit:10;}.cls-7{stroke:url(#linear-gradient-7);}.cls-8{stroke:url(#linear-gradient-8);}.cls-9{stroke:url(#linear-gradient-9);}.cls-10{stroke:url(#linear-gradient-10);}.cls-11{stroke:url(#linear-gradient-11);}.cls-12{stroke:url(#linear-gradient-12);}.cls-13{stroke:url(#linear-gradient-13);}.cls-14{stroke:url(#linear-gradient-14);}.cls-15{stroke:url(#linear-gradient-15);}.cls-16{stroke:url(#linear-gradient-16);}</style><linearGradient id="linear-gradient" x1="47.61" y1="92.01" x2="47.61" y2="83.93" gradientUnits="userSpaceOnUse"><stop offset="0" stop-color="#1a71aa"/><stop offset="1" stop-color="#803588"/></linearGradient><linearGradient id="linear-gradient-2" x1="51.8" y1="92.01" x2="51.8" y2="83.93" xlink:href="#linear-gradient"/><linearGradient id="linear-gradient-3" x1="56.39" y1="92.01" x2="56.39" y2="83.93" xlink:href="#linear-gradient"/><linearGradient id="linear-gradient-4" x1="60.82" y1="92.01" x2="60.82" y2="83.93" xlink:href="#linear-gradient"/><linearGradient id="linear-gradient-5" x1="66.99" y1="92.01" x2="66.99" y2="83.93" xlink:href="#linear-gradient"/><linearGradient id="linear-gradient-6" x1="73.25" y1="92.01" x2="73.25" y2="83.87" xlink:href="#linear-gradient"/><linearGradient id="linear-gradient-7" x1="60.18" y1="76.87" x2="60.18" y2="41.18" xlink:href="#linear-gradient"/><linearGradient id="linear-gradient-8" x1="3.5" y1="25" x2="3.5" y2="18" xlink:href="#linear-gradient"/><linearGradient id="linear-gradient-9" x1="24" y1="18" x2="24" y2="12" xlink:href="#linear-gradient"/><linearGradient id="linear-gradient-10" x1="39" y1="23" x2="39" y2="17" xlink:href="#linear-gradient"/><linearGradient id="linear-gradient-11" x1="10" y1="16" x2="10" y2="6" xlink:href="#linear-gradient"/><linearGradient id="linear-gradient-12" x1="24" y1="10" x2="24" y2="0" xlink:href="#linear-gradient"/><linearGradient id="linear-gradient-13" x1="17" y1="27" x2="17" y2="19" xlink:href="#linear-gradient"/><linearGradient id="linear-gradient-14" x1="34.5" y1="14" x2="34.5" y2="7" xlink:href="#linear-gradient"/><linearGradient id="linear-gradient-15" x1="31" y1="30" x2="31" y2="22" xlink:href="#linear-gradient"/><linearGradient id="linear-gradient-16" x1="60.27" y1="43.23" x2="60.27" y2="32.21" xlink:href="#linear-gradient"/></defs><title>12</title><path class="cls-1" d="M45.43,83.93h4.35v.88H46.48v2.69h3.06v.86H46.48V92h-1Z" transform="translate(-38.68 -8.87)"/><path class="cls-2" d="M52.32,83.93V92h-1V83.93Z" transform="translate(-38.68 -8.87)"/><path class="cls-3" d="M54.14,83.93h1v7.21h3.45V92h-4.5Z" transform="translate(-38.68 -8.87)"/><path class="cls-4" d="M60.29,84.81H57.83v-.89h6v.89H61.34V92H60.29Z" transform="translate(-38.68 -8.87)"/><path class="cls-5" d="M68.9,88.22H65.76v2.92h3.5V92H64.72V83.93h4.37v.88H65.76v2.55H68.9Z" transform="translate(-38.68 -8.87)"/><path class="cls-6" d="M70.62,84a10.91,10.91,0,0,1,2-.17,3.31,3.31,0,0,1,2.34.66,2,2,0,0,1,.64,1.54,2.12,2.12,0,0,1-1.52,2.06v0a2,2,0,0,1,1.19,1.63A12.8,12.8,0,0,0,75.89,92H74.81a10.45,10.45,0,0,1-.54-1.93c-.24-1.12-.67-1.54-1.62-1.57h-1V92h-1Zm1,3.68h1.07c1.12,0,1.82-.61,1.82-1.54s-.75-1.5-1.86-1.51a4.3,4.3,0,0,0-1,.1Z" transform="translate(-38.68 -8.87)"/><g id="Filter"><path class="cls-7" d="M60.2,44.68c-7.56,0-15.16-.81-19.08-2.38L56.18,62.58V76.37h8V62.58L79.25,42.31C75.31,43.87,67.73,44.68,60.2,44.68Z" transform="translate(-38.68 -8.87)"/><rect class="cls-8" x="0.5" y="18.5" width="6" height="6"/><rect class="cls-9" x="21.5" y="12.5" width="5" height="5"/><rect class="cls-10" x="36.5" y="17.5" width="5" height="5"/><rect class="cls-11" x="5.5" y="6.5" width="9" height="9"/><rect class="cls-12" x="19.5" y="0.5" width="9" height="9"/><rect class="cls-13" x="13.5" y="19.5" width="7" height="7"/><rect class="cls-14" x="31.5" y="7.5" width="6" height="6"/><rect class="cls-15" x="27.5" y="22.5" width="7" height="7"/><path class="cls-16" d="M74.18,34.77v4.59h-10v-6.5c-1.15-.08-2.24-.14-3-.15v3.65h-10V33.58C44.11,34.87,39.43,37.32,39.43,39a.72.72,0,0,0,.05.22c.68,1.53,8.44,3.51,20.8,3.51,12.13,0,19.83-1.91,20.75-3.43a.87.87,0,0,0,.07-.3C81.1,37.75,78.51,36.08,74.18,34.77Z" transform="translate(-38.68 -8.87)"/></g></svg>