<svg id="Layer_1" data-name="Layer 1" xmlns="http://www.w3.org/2000/svg" xmlns:xlink="http://www.w3.org/1999/xlink" viewBox="0 0 94.16 79.6"><defs><style>.cls-1{fill:url(#linear-gradient);}.cls-2{fill:url(#linear-gradient-2);}.cls-3{fill:url(#linear-gradient-3);}.cls-4{fill:url(#linear-gradient-4);}.cls-5{fill:url(#linear-gradient-5);}.cls-6{fill:url(#linear-gradient-6);}.cls-7{fill:url(#linear-gradient-7);}.cls-8{fill:url(#linear-gradient-8);}.cls-9{fill:url(#linear-gradient-9);}.cls-10{fill:url(#linear-gradient-10);}.cls-11{fill:url(#linear-gradient-11);}.cls-12{fill:url(#linear-gradient-12);}.cls-13{fill:url(#linear-gradient-13);}.cls-14{fill:url(#linear-gradient-14);}.cls-15,.cls-16,.cls-17,.cls-18,.cls-19{fill:none;stroke-miterlimit:10;}.cls-15{stroke:url(#linear-gradient-15);}.cls-16{stroke:url(#linear-gradient-17);}.cls-17{stroke:url(#linear-gradient-18);}.cls-18{stroke:url(#linear-gradient-19);}.cls-19{stroke:url(#linear-gradient-20);}</style><linearGradient id="linear-gradient" x1="15.55" y1="89.71" x2="15.55" y2="81.57" gradientUnits="userSpaceOnUse"><stop offset="0" stop-color="#1a71aa"/><stop offset="1" stop-color="#803588"/></linearGradient><linearGradient id="linear-gradient-2" x1="22.08" y1="89.71" x2="22.08" y2="81.57" xlink:href="#linear-gradient"/><linearGradient id="linear-gradient-3" x1="29.15" y1="89.84" x2="29.15" y2="81.49" xlink:href="#linear-gradient"/><linearGradient id="linear-gradient-4" x1="36.76" y1="89.78" x2="36.76" y2="81.57" xlink:href="#linear-gradient"/><linearGradient id="linear-gradient-5" x1="42.96" y1="89.71" x2="42.96" y2="81.63" xlink:href="#linear-gradient"/><linearGradient id="linear-gradient-6" x1="48.65" y1="89.71" x2="48.65" y2="81.63" xlink:href="#linear-gradient"/><linearGradient id="linear-gradient-7" x1="56.19" y1="89.71" x2="56.19" y2="81.63" xlink:href="#linear-gradient"/><linearGradient id="linear-gradient-8" x1="66.51" y1="89.83" x2="66.51" y2="81.49" xlink:href="#linear-gradient"/><linearGradient id="linear-gradient-9" x1="73.6" y1="89.84" x2="73.6" y2="81.49" xlink:href="#linear-gradient"/><linearGradient id="linear-gradient-10" x1="80.9" y1="89.71" x2="80.9" y2="81.63" xlink:href="#linear-gradient"/><linearGradient id="linear-gradient-11" x1="86.09" y1="89.71" x2="86.09" y2="81.63" xlink:href="#linear-gradient"/><linearGradient id="linear-gradient-12" x1="90.83" y1="89.71" x2="90.83" y2="81.63" xlink:href="#linear-gradient"/><linearGradient id="linear-gradient-13" x1="96.21" y1="89.71" x2="96.21" y2="81.63" xlink:href="#linear-gradient"/><linearGradient id="linear-gradient-14" x1="103.91" y1="89.79" x2="103.91" y2="81.54" xlink:href="#linear-gradient"/><linearGradient id="linear-gradient-15" x1="51.67" y1="31.59" x2="51.67" y2="18.29" xlink:href="#linear-gradient"/><linearGradient id="linear-gradient-17" x1="27.01" y1="59.24" x2="27.01" y2="44.76" xlink:href="#linear-gradient"/><linearGradient id="linear-gradient-18" x1="59.45" y1="56.76" x2="59.45" y2="24.76" xlink:href="#linear-gradient"/><linearGradient id="linear-gradient-19" x1="66.95" y1="20.7" x2="66.95" y2="0" xlink:href="#linear-gradient"/><linearGradient id="linear-gradient-20" x1="66.44" y1="61.91" x2="66.44" y2="48.61" xlink:href="#linear-gradient"/></defs><title>13</title><path class="cls-1" d="M13.06,81.72a12.09,12.09,0,0,1,2-.16,3.32,3.32,0,0,1,2.27.67A2.17,2.17,0,0,1,18,83.93a2.38,2.38,0,0,1-.62,1.73,3.35,3.35,0,0,1-2.47.89,3.58,3.58,0,0,1-.84-.07v3.24h-1Zm1,3.9a3.49,3.49,0,0,0,.86.08c1.26,0,2-.61,2-1.73s-.76-1.58-1.91-1.58a4.38,4.38,0,0,0-1,.08Z" transform="translate(-13.06 -10.24)"/><path class="cls-2" d="M19.45,81.73a10.87,10.87,0,0,1,2-.17,3.31,3.31,0,0,1,2.34.66,2,2,0,0,1,.64,1.54,2.12,2.12,0,0,1-1.52,2.06v0a2,2,0,0,1,1.19,1.63,12.87,12.87,0,0,0,.62,2.22H23.63a10.46,10.46,0,0,1-.54-1.93c-.24-1.12-.67-1.54-1.62-1.57h-1v3.5h-1Zm1,3.68h1.07c1.12,0,1.82-.61,1.82-1.54s-.76-1.5-1.86-1.51a4.3,4.3,0,0,0-1,.1Z" transform="translate(-13.06 -10.24)"/><path class="cls-3" d="M32.85,85.58c0,2.78-1.69,4.26-3.75,4.26s-3.63-1.65-3.63-4.1,1.6-4.25,3.75-4.25S32.85,83.18,32.85,85.58Zm-6.27.13c0,1.73.93,3.27,2.58,3.27s2.59-1.52,2.59-3.36c0-1.61-.84-3.29-2.58-3.29S26.58,83.94,26.58,85.71Z" transform="translate(-13.06 -10.24)"/><path class="cls-4" d="M34.21,81.73a10.09,10.09,0,0,1,1.91-.17,3.34,3.34,0,0,1,2.22.59A1.69,1.69,0,0,1,39,83.58a1.92,1.92,0,0,1-1.37,1.77v0a2.08,2.08,0,0,1,1.67,2A2.18,2.18,0,0,1,38.62,89a4.06,4.06,0,0,1-2.79.76,12.22,12.22,0,0,1-1.62-.1Zm1,3.31h.95c1.1,0,1.75-.58,1.75-1.35,0-.95-.72-1.32-1.77-1.32a4.46,4.46,0,0,0-.92.07Zm0,3.87a5.54,5.54,0,0,0,.88,0c1.08,0,2.07-.4,2.07-1.57s-.95-1.56-2.09-1.56h-.86Z" transform="translate(-13.06 -10.24)"/><path class="cls-5" d="M40.71,81.63h1v7.21h3.45v.88h-4.5Z" transform="translate(-13.06 -10.24)"/><path class="cls-6" d="M50.56,85.92H47.42v2.91h3.5v.88H46.38V81.63h4.37v.88H47.42v2.55h3.14Z" transform="translate(-13.06 -10.24)"/><path class="cls-7" d="M59.09,86.16C59,85,59,83.68,59,82.67h0c-.28.95-.61,2-1,3.07l-1.43,3.92H55.7l-1.31-3.85c-.38-1.14-.71-2.18-.94-3.14h0c0,1-.08,2.36-.16,3.57l-.22,3.47h-1l.56-8.08H54l1.38,3.91c.34,1,.61,1.88.82,2.72h0c.2-.82.49-1.7.85-2.72l1.44-3.91h1.33l.5,8.08h-1Z" transform="translate(-13.06 -10.24)"/><path class="cls-8" d="M64.33,88.44A3.7,3.7,0,0,0,66.2,89c1.07,0,1.69-.56,1.69-1.38S67.46,86.4,66.37,86c-1.32-.47-2.13-1.15-2.13-2.29a2.33,2.33,0,0,1,2.61-2.19,3.68,3.68,0,0,1,1.79.4l-.29.85a3.22,3.22,0,0,0-1.54-.38c-1.1,0-1.52.66-1.52,1.21,0,.76.49,1.13,1.61,1.56,1.37.53,2.06,1.19,2.06,2.37s-.92,2.33-2.83,2.33a4.17,4.17,0,0,1-2.06-.52Z" transform="translate(-13.06 -10.24)"/><path class="cls-9" d="M77.3,85.58c0,2.78-1.69,4.26-3.75,4.26s-3.63-1.65-3.63-4.1,1.59-4.25,3.75-4.25S77.3,83.18,77.3,85.58ZM71,85.71C71,87.44,72,89,73.6,89s2.59-1.52,2.59-3.36c0-1.61-.84-3.29-2.58-3.29S71,83.94,71,85.71Z" transform="translate(-13.06 -10.24)"/><path class="cls-10" d="M78.66,81.63h1v7.21h3.45v.88h-4.5Z" transform="translate(-13.06 -10.24)"/><path class="cls-11" d="M85.39,89.71l-2.64-8.08h1.13l1.26,4c.35,1.09.65,2.07.86,3h0c.23-.94.56-2,.92-3l1.37-4h1.12l-2.89,8.08Z" transform="translate(-13.06 -10.24)"/><path class="cls-12" d="M91.35,81.63v8.08h-1V81.63Z" transform="translate(-13.06 -10.24)"/><path class="cls-13" d="M93.18,89.71V81.63h1.14l2.59,4.09a22.87,22.87,0,0,1,1.45,2.63h0c-.1-1.08-.12-2.06-.12-3.32V81.63h1v8.08H98.19l-2.57-4.1a25.63,25.63,0,0,1-1.51-2.7h0c.06,1,.08,2,.08,3.33v3.45Z" transform="translate(-13.06 -10.24)"/><path class="cls-14" d="M107.22,89.35a7.53,7.53,0,0,1-2.48.44,3.8,3.8,0,0,1-4.15-4.08A4.05,4.05,0,0,1,105,81.54a5,5,0,0,1,2,.37l-.25.85a4.19,4.19,0,0,0-1.79-.35,3,3,0,0,0-3.25,3.25,3,3,0,0,0,3.12,3.26,3.4,3.4,0,0,0,1.39-.22V86.3h-1.64v-.84h2.66Z" transform="translate(-13.06 -10.24)"/><g id="Problem_Solving" data-name="Problem Solving"><path class="cls-15" d="M56.72,31.09a1,1,0,0,1-.71-.3L45.9,20.49a1,1,0,1,1,1.43-1.4l10.11,10.3a1,1,0,0,1-.71,1.7Z" transform="translate(-13.06 -10.24)"/><path class="cls-15" d="M46.61,31.09a1,1,0,0,1-.71-1.7L56,19.09a1,1,0,1,1,1.43,1.4L47.33,30.79A1,1,0,0,1,46.61,31.09Z" transform="translate(-13.06 -10.24)"/><circle class="cls-16" cx="27.01" cy="52" r="6.74"/><path class="cls-17" d="M40.95,56.26h-3V46.62a7.36,7.36,0,0,1,7.36-7.36H74.16s4.36-2.3,4.78-4.7v-9.3h2V34.9a7.36,7.36,0,0,1-7.36,7.36H45.31a4.36,4.36,0,0,0-4.36,4.36Z" transform="translate(-13.06 -10.24)"/><polygon class="cls-18" points="67.09 1.3 59.23 19.82 66.96 17.16 74.68 19.86 67.09 1.3"/><path class="cls-19" d="M71.49,61.41a1,1,0,0,1-.71-.3L60.67,50.81a1,1,0,0,1,1.43-1.4L72.2,59.71a1,1,0,0,1-.71,1.7Z" transform="translate(-13.06 -10.24)"/><path class="cls-19" d="M61.38,61.41a1,1,0,0,1-.71-1.7l10.11-10.3a1,1,0,1,1,1.43,1.4L62.09,61.11A1,1,0,0,1,61.38,61.41Z" transform="translate(-13.06 -10.24)"/></g></svg>