<svg id="Layer_1" data-name="Layer 1" xmlns="http://www.w3.org/2000/svg" xmlns:xlink="http://www.w3.org/1999/xlink" viewBox="0 0 48.4 80.08"><defs><style>.cls-1{fill:url(#linear-gradient);}.cls-2{fill:url(#linear-gradient-2);}.cls-3{fill:url(#linear-gradient-3);}.cls-4{fill:url(#linear-gradient-4);}.cls-5{fill:url(#linear-gradient-5);}.cls-6{fill:url(#linear-gradient-6);}.cls-7{fill:url(#linear-gradient-7);}.cls-10,.cls-8,.cls-9{fill:none;stroke-miterlimit:10;fill-rule:evenodd;}.cls-8{stroke:url(#linear-gradient-8);}.cls-9{stroke:url(#linear-gradient-9);}.cls-10{stroke:url(#linear-gradient-10);}</style><linearGradient id="linear-gradient" x1="40.97" y1="90.36" x2="40.97" y2="82.27" gradientUnits="userSpaceOnUse"><stop offset="0" stop-color="#1a71aa"/><stop offset="1" stop-color="#803588"/></linearGradient><linearGradient id="linear-gradient-2" x1="49.36" y1="90.36" x2="49.36" y2="82.27" xlink:href="#linear-gradient"/><linearGradient id="linear-gradient-3" x1="56.35" y1="90.48" x2="56.35" y2="82.14" xlink:href="#linear-gradient"/><linearGradient id="linear-gradient-4" x1="63.72" y1="90.36" x2="63.72" y2="82.27" xlink:href="#linear-gradient"/><linearGradient id="linear-gradient-5" x1="69.06" y1="90.36" x2="69.06" y2="82.27" xlink:href="#linear-gradient"/><linearGradient id="linear-gradient-6" x1="74.44" y1="90.36" x2="74.44" y2="82.27" xlink:href="#linear-gradient"/><linearGradient id="linear-gradient-7" x1="81.58" y1="90.36" x2="81.58" y2="82.27" xlink:href="#linear-gradient"/><linearGradient id="linear-gradient-8" x1="52.93" y1="57.4" x2="52.93" y2="23.42" xlink:href="#linear-gradient"/><linearGradient id="linear-gradient-9" x1="71.98" y1="71.47" x2="71.98" y2="49" xlink:href="#linear-gradient"/><linearGradient id="linear-gradient-10" x1="73.08" y1="33.06" x2="73.08" y2="10.4" xlink:href="#linear-gradient"/></defs><title>14</title><path class="cls-1" d="M43.88,86.81c-.06-1.13-.13-2.48-.12-3.49h0c-.28.95-.61,2-1,3.07l-1.43,3.92h-.79l-1.31-3.85c-.38-1.14-.71-2.18-.94-3.14h0c0,1-.08,2.36-.16,3.57l-.22,3.47h-1l.56-8.08h1.33l1.38,3.91c.34,1,.61,1.88.82,2.72h0c.2-.82.49-1.7.85-2.72l1.44-3.91H44.6l.5,8.08h-1Z" transform="translate(-35.94 -10.4)"/><path class="cls-2" d="M47.9,87.81l-.84,2.54H46l2.75-8.08H50l2.76,8.08H51.63l-.86-2.54ZM50.55,87l-.79-2.33c-.18-.53-.3-1-.42-1.48h0c-.12.48-.25,1-.41,1.46L48.11,87Z" transform="translate(-35.94 -10.4)"/><path class="cls-3" d="M59.4,90.09a5.18,5.18,0,0,1-2.13.38,3.78,3.78,0,0,1-4-4.09,4,4,0,0,1,4.22-4.25,4.33,4.33,0,0,1,1.92.36l-.25.85A3.79,3.79,0,0,0,57.53,83a3,3,0,0,0-3.15,3.33,2.94,2.94,0,0,0,3.11,3.25,4.18,4.18,0,0,0,1.7-.34Z" transform="translate(-35.94 -10.4)"/><path class="cls-4" d="M61.76,82.27v3.38h3.91V82.27h1.06v8.08H65.67V86.57H61.76v3.79h-1V82.27Z" transform="translate(-35.94 -10.4)"/><path class="cls-5" d="M69.58,82.27v8.08h-1V82.27Z" transform="translate(-35.94 -10.4)"/><path class="cls-6" d="M71.41,90.36V82.27h1.14l2.59,4.09A22.86,22.86,0,0,1,76.59,89h0c-.1-1.08-.12-2.06-.12-3.32V82.27h1v8.08H76.42l-2.57-4.1a25.72,25.72,0,0,1-1.51-2.7h0c.06,1,.08,2,.08,3.33v3.45Z" transform="translate(-35.94 -10.4)"/><path class="cls-7" d="M83.49,86.57H80.35v2.91h3.5v.88H79.3V82.27h4.37v.88H80.35V85.7h3.14Z" transform="translate(-35.94 -10.4)"/><g id="Machine"><path class="cls-8" d="M54.55,24a16.7,16.7,0,0,0-3.23,0l-.49,2.55a13.93,13.93,0,0,0-3,.81l-1.7-2A16.52,16.52,0,0,0,43.33,27l.86,2.45a14,14,0,0,0-2.2,2.2l-2.45-.86a16.61,16.61,0,0,0-1.62,2.8l2,1.7a14,14,0,0,0-.8,3l-2.55.49a16.43,16.43,0,0,0,0,3.23l2.55.48a14,14,0,0,0,.8,3l-2,1.7A16.61,16.61,0,0,0,39.53,50L42,49.16a14,14,0,0,0,2.2,2.2l-.86,2.46a16.51,16.51,0,0,0,2.8,1.62l1.7-2a14,14,0,0,0,3,.8l.49,2.55a16.39,16.39,0,0,0,3.23,0L55,54.27a14,14,0,0,0,3-.8l1.7,2a16.52,16.52,0,0,0,2.8-1.62l-.86-2.46a14.05,14.05,0,0,0,2.2-2.2l2.45.86A16.51,16.51,0,0,0,68,47.22l-2-1.7a14.07,14.07,0,0,0,.81-3L69.35,42a16.64,16.64,0,0,0,0-3.23l-2.55-.49a14.08,14.08,0,0,0-.81-3l2-1.7a16.51,16.51,0,0,0-1.62-2.8l-2.45.86a14,14,0,0,0-2.2-2.2L62.54,27a16.54,16.54,0,0,0-2.8-1.62l-1.7,2a13.92,13.92,0,0,0-3-.81L54.55,24ZM52.93,37.11a3.3,3.3,0,1,1-3.3,3.3,3.3,3.3,0,0,1,3.3-3.3Z" transform="translate(-35.94 -10.4)"/><path class="cls-9" d="M73.39,49.59a10.79,10.79,0,0,0-2.83,0l-.42,1.72a9.22,9.22,0,0,0-2.56.93l-1.43-1A10.78,10.78,0,0,0,64,53l.78,1.58A9.23,9.23,0,0,0,63.41,57l-1.76.12a10.83,10.83,0,0,0-.49,2.79l1.62.71a9.23,9.23,0,0,0,.47,2.68L62,64.48a10.84,10.84,0,0,0,1.41,2.45l1.7-.49a9.15,9.15,0,0,0,2.08,1.75L67,69.94a10.79,10.79,0,0,0,2.66,1l1-1.47a9.21,9.21,0,0,0,2.72,0l1,1.47a10.78,10.78,0,0,0,2.66-1l-.19-1.76a9.16,9.16,0,0,0,2.09-1.75l1.7.49A10.86,10.86,0,0,0,82,64.48l-1.28-1.22a9.19,9.19,0,0,0,.47-2.68l1.62-.71a10.87,10.87,0,0,0-.49-2.79L80.54,57a9.2,9.2,0,0,0-1.36-2.36L80,53A10.85,10.85,0,0,0,77.8,51.2l-1.43,1a9.23,9.23,0,0,0-2.56-.93l-.42-1.72ZM72,58.17a2.17,2.17,0,1,1-2.17,2.17A2.17,2.17,0,0,1,72,58.17Z" transform="translate(-35.94 -10.4)"/><path class="cls-10" d="M73,10.9a10.8,10.8,0,0,0-2.8.42L70,13.08a9.21,9.21,0,0,0-2.39,1.3L66,13.56a10.74,10.74,0,0,0-1.87,2.12l1,1.45a9.18,9.18,0,0,0-1,2.53L62.45,20a10.86,10.86,0,0,0-.08,2.83l1.71.47a9.2,9.2,0,0,0,.86,2.58l-1.08,1.4a10.88,10.88,0,0,0,1.76,2.21l1.61-.74a9.2,9.2,0,0,0,2.32,1.42L69.62,32a10.82,10.82,0,0,0,2.77.56l.76-1.6a9.21,9.21,0,0,0,2.69-.4L77,31.84a10.86,10.86,0,0,0,2.49-1.35l-.45-1.71a9.16,9.16,0,0,0,1.8-2l1.75.24a10.79,10.79,0,0,0,1-2.63l-1.44-1a9.18,9.18,0,0,0,.07-2.72l1.49-.94a10.8,10.8,0,0,0-.9-2.68l-1.76.15A9.16,9.16,0,0,0,79.43,15L80,13.31a10.78,10.78,0,0,0-2.41-1.48L76.3,13.08a9.22,9.22,0,0,0-2.67-.54L73,10.9Zm-.13,8.69A2.17,2.17,0,1,1,71,22.05a2.17,2.17,0,0,1,1.82-2.46Z" transform="translate(-35.94 -10.4)"/></g></svg>