<svg id="Layer_1" data-name="Layer 1" xmlns="http://www.w3.org/2000/svg" xmlns:xlink="http://www.w3.org/1999/xlink" viewBox="0 0 95.91 60.44"><defs><style>.cls-1{fill:url(#linear-gradient);}.cls-2{fill:url(#linear-gradient-2);}.cls-3{fill:url(#linear-gradient-3);}.cls-4{fill:url(#linear-gradient-4);}.cls-5{fill:url(#linear-gradient-5);}.cls-6{fill:url(#linear-gradient-6);}.cls-7{fill:url(#linear-gradient-7);}.cls-8{fill:url(#linear-gradient-8);}.cls-9{fill:url(#linear-gradient-9);}.cls-10{fill:url(#linear-gradient-10);}.cls-11{fill:url(#linear-gradient-11);}.cls-12{fill:url(#linear-gradient-12);}.cls-13{fill:url(#linear-gradient-13);}.cls-14{fill:url(#linear-gradient-14);}.cls-15{fill:url(#linear-gradient-15);}.cls-16{fill:url(#linear-gradient-16);}.cls-17{fill:url(#linear-gradient-17);}.cls-18{fill:url(#linear-gradient-18);}.cls-19{fill:url(#linear-gradient-19);}.cls-20{fill:url(#linear-gradient-20);}.cls-21{fill:url(#linear-gradient-21);}.cls-22{fill:url(#linear-gradient-22);}.cls-23,.cls-24,.cls-25,.cls-26,.cls-27,.cls-28,.cls-29,.cls-30{fill:none;stroke-miterlimit:10;stroke-width:0.75px;}.cls-23{stroke:url(#linear-gradient-23);}.cls-24{stroke:url(#linear-gradient-24);}.cls-25{stroke:url(#linear-gradient-25);}.cls-26{stroke:url(#linear-gradient-26);}.cls-27{stroke:url(#linear-gradient-27);}.cls-28{fill-rule:evenodd;stroke:url(#linear-gradient-28);}.cls-29{stroke:url(#linear-gradient-29);}.cls-30{stroke:url(#linear-gradient-30);}</style><linearGradient id="linear-gradient" x1="14.74" y1="80.63" x2="14.74" y2="74.54" gradientUnits="userSpaceOnUse"><stop offset="0" stop-color="#1a71aa"/><stop offset="1" stop-color="#803588"/></linearGradient><linearGradient id="linear-gradient-2" x1="20.16" y1="80.63" x2="20.16" y2="74.5" xlink:href="#linear-gradient"/><linearGradient id="linear-gradient-3" x1="24.68" y1="80.63" x2="24.68" y2="74.54" xlink:href="#linear-gradient"/><linearGradient id="linear-gradient-4" x1="28.01" y1="80.63" x2="28.01" y2="74.54" xlink:href="#linear-gradient"/><linearGradient id="linear-gradient-5" x1="31.42" y1="80.63" x2="31.42" y2="74.54" xlink:href="#linear-gradient"/><linearGradient id="linear-gradient-6" x1="34.57" y1="80.63" x2="34.57" y2="74.54" xlink:href="#linear-gradient"/><linearGradient id="linear-gradient-7" x1="38.29" y1="80.72" x2="38.29" y2="74.44" xlink:href="#linear-gradient"/><linearGradient id="linear-gradient-8" x1="41.98" y1="80.63" x2="41.98" y2="74.54" xlink:href="#linear-gradient"/><linearGradient id="linear-gradient-9" x1="45.83" y1="80.63" x2="45.83" y2="74.54" xlink:href="#linear-gradient"/><linearGradient id="linear-gradient-10" x1="50.97" y1="80.63" x2="50.97" y2="74.54" xlink:href="#linear-gradient"/><linearGradient id="linear-gradient-11" x1="55.85" y1="80.63" x2="55.85" y2="74.54" xlink:href="#linear-gradient"/><linearGradient id="linear-gradient-12" x1="59.9" y1="80.63" x2="59.9" y2="74.54" xlink:href="#linear-gradient"/><linearGradient id="linear-gradient-13" x1="65.12" y1="80.63" x2="65.12" y2="74.54" xlink:href="#linear-gradient"/><linearGradient id="linear-gradient-14" x1="69.77" y1="80.63" x2="69.77" y2="74.54" xlink:href="#linear-gradient"/><linearGradient id="linear-gradient-15" x1="74.2" y1="80.63" x2="74.2" y2="74.54" xlink:href="#linear-gradient"/><linearGradient id="linear-gradient-16" x1="78.47" y1="80.63" x2="78.47" y2="74.54" xlink:href="#linear-gradient"/><linearGradient id="linear-gradient-17" x1="81.43" y1="80.63" x2="81.43" y2="74.54" xlink:href="#linear-gradient"/><linearGradient id="linear-gradient-18" x1="85.34" y1="80.69" x2="85.34" y2="74.48" xlink:href="#linear-gradient"/><linearGradient id="linear-gradient-19" x1="90.75" y1="80.63" x2="90.75" y2="74.54" xlink:href="#linear-gradient"/><linearGradient id="linear-gradient-20" x1="95.77" y1="80.63" x2="95.77" y2="74.54" xlink:href="#linear-gradient"/><linearGradient id="linear-gradient-21" x1="101.38" y1="80.72" x2="101.38" y2="74.44" xlink:href="#linear-gradient"/><linearGradient id="linear-gradient-22" x1="106.39" y1="80.63" x2="106.39" y2="74.54" xlink:href="#linear-gradient"/><linearGradient id="linear-gradient-23" x1="61.66" y1="60.56" x2="61.66" y2="58.08" xlink:href="#linear-gradient"/><linearGradient id="linear-gradient-24" x1="61.66" y1="63.41" x2="61.66" y2="61.09" xlink:href="#linear-gradient"/><linearGradient id="linear-gradient-25" x1="61.66" y1="66.41" x2="61.66" y2="63.35" xlink:href="#linear-gradient"/><linearGradient id="linear-gradient-26" x1="69.19" y1="39.59" x2="69.19" y2="22.9" xlink:href="#linear-gradient"/><linearGradient id="linear-gradient-27" x1="69.47" y1="58.08" x2="69.47" y2="35.1" xlink:href="#linear-gradient"/><linearGradient id="linear-gradient-28" x1="50.26" y1="37.2" x2="50.26" y2="20.28" xlink:href="#linear-gradient"/><linearGradient id="linear-gradient-29" x1="57.56" y1="39.59" x2="57.56" y2="22.9" xlink:href="#linear-gradient"/><linearGradient id="linear-gradient-30" x1="53.68" y1="58.08" x2="53.68" y2="36.29" xlink:href="#linear-gradient"/></defs><title>15</title><path class="cls-1" d="M13.63,78.72,13,80.63h-.81l2.07-6.09h.95l2.08,6.09h-.84l-.65-1.92Zm2-.61L15,76.35c-.14-.4-.23-.76-.32-1.11h0c-.09.36-.19.73-.31,1.1l-.6,1.76Z" transform="translate(-12.19 -20.28)"/><path class="cls-2" d="M18.18,74.62a8.19,8.19,0,0,1,1.51-.13,2.49,2.49,0,0,1,1.76.5,1.52,1.52,0,0,1,.48,1.16,1.6,1.6,0,0,1-1.15,1.55v0A1.52,1.52,0,0,1,21.68,79a9.7,9.7,0,0,0,.47,1.67h-.81a7.88,7.88,0,0,1-.41-1.45c-.18-.84-.51-1.16-1.22-1.18H19v2.64h-.79ZM19,77.4h.8c.84,0,1.37-.46,1.37-1.16s-.57-1.13-1.4-1.14a3.24,3.24,0,0,0-.78.07Z" transform="translate(-12.19 -20.28)"/><path class="cls-3" d="M24.28,75.21H22.43v-.67h4.51v.67H25.08v5.42h-.79Z" transform="translate(-12.19 -20.28)"/><path class="cls-4" d="M28.4,74.54v6.09h-.79V74.54Z" transform="translate(-12.19 -20.28)"/><path class="cls-5" d="M29.78,74.54h3.28v.66H30.56v2h2.3v.65h-2.3v2.76h-.79Z" transform="translate(-12.19 -20.28)"/><path class="cls-6" d="M35,74.54v6.09h-.79V74.54Z" transform="translate(-12.19 -20.28)"/><path class="cls-7" d="M40.6,80.43a3.9,3.9,0,0,1-1.61.29,2.85,2.85,0,0,1-3-3.08,3,3,0,0,1,3.18-3.2,3.26,3.26,0,0,1,1.45.27l-.19.64a2.86,2.86,0,0,0-1.23-.25,2.26,2.26,0,0,0-2.38,2.51,2.21,2.21,0,0,0,2.34,2.45,3.15,3.15,0,0,0,1.28-.25Z" transform="translate(-12.19 -20.28)"/><path class="cls-8" d="M42.37,74.54v6.09h-.79V74.54Z" transform="translate(-12.19 -20.28)"/><path class="cls-9" d="M44.73,78.72l-.63,1.92h-.81l2.07-6.09h.95l2.08,6.09h-.84l-.65-1.92Zm2-.61-.6-1.75c-.14-.4-.23-.76-.32-1.11h0c-.09.36-.19.73-.31,1.1l-.6,1.76Z" transform="translate(-12.19 -20.28)"/><path class="cls-10" d="M49.28,74.54h.79V80h2.6v.66H49.28Z" transform="translate(-12.19 -20.28)"/><path class="cls-11" d="M56.24,74.54v6.09h-.79V74.54Z" transform="translate(-12.19 -20.28)"/><path class="cls-12" d="M57.62,80.63V74.54h.86l2,3.08a17.22,17.22,0,0,1,1.09,2h0c-.07-.81-.09-1.55-.09-2.5V74.54h.74v6.09H61.4l-1.93-3.09a19.31,19.31,0,0,1-1.14-2h0c0,.77.06,1.5.06,2.51v2.6Z" transform="translate(-12.19 -20.28)"/><path class="cls-13" d="M64.72,75.21H62.87v-.67h4.51v.67H65.52v5.42h-.79Z" transform="translate(-12.19 -20.28)"/><path class="cls-14" d="M71.21,77.78H68.84V80h2.64v.66H68.06V74.54h3.29v.66h-2.5v1.92h2.37Z" transform="translate(-12.19 -20.28)"/><path class="cls-15" d="M72.51,74.54h.79V80h2.6v.66H72.51Z" transform="translate(-12.19 -20.28)"/><path class="cls-16" d="M76.77,74.54h.79V80h2.6v.66H76.77Z" transform="translate(-12.19 -20.28)"/><path class="cls-17" d="M81.82,74.54v6.09H81V74.54Z" transform="translate(-12.19 -20.28)"/><path class="cls-18" d="M87.83,80.36a5.67,5.67,0,0,1-1.87.33,2.86,2.86,0,0,1-3.13-3.07,3.05,3.05,0,0,1,3.3-3.14,3.77,3.77,0,0,1,1.52.28l-.19.64a3.16,3.16,0,0,0-1.35-.26,2.28,2.28,0,0,0-2.45,2.45A2.23,2.23,0,0,0,86,80a2.56,2.56,0,0,0,1-.16V78.07H85.83v-.63h2Z" transform="translate(-12.19 -20.28)"/><path class="cls-19" d="M92.19,77.78H89.82V80h2.64v.66H89V74.54h3.29v.66h-2.5v1.92h2.37Z" transform="translate(-12.19 -20.28)"/><path class="cls-20" d="M93.49,80.63V74.54h.86l2,3.08a17.22,17.22,0,0,1,1.09,2h0c-.07-.81-.09-1.55-.09-2.5V74.54h.74v6.09h-.79l-1.93-3.09a19.32,19.32,0,0,1-1.14-2h0c0,.77.06,1.5.06,2.51v2.6Z" transform="translate(-12.19 -20.28)"/><path class="cls-21" d="M103.69,80.43a3.9,3.9,0,0,1-1.61.29,2.85,2.85,0,0,1-3-3.08,3,3,0,0,1,3.18-3.2,3.26,3.26,0,0,1,1.45.27l-.19.64a2.86,2.86,0,0,0-1.23-.25,2.26,2.26,0,0,0-2.38,2.51,2.21,2.21,0,0,0,2.34,2.45,3.15,3.15,0,0,0,1.28-.25Z" transform="translate(-12.19 -20.28)"/><path class="cls-22" d="M107.83,77.78h-2.37V80h2.64v.66h-3.42V74.54H108v.66h-2.5v1.92h2.37Z" transform="translate(-12.19 -20.28)"/><g id="Machine_Learning" data-name="Machine Learning"><path class="cls-23" d="M66,60H57.3c-.48.48-.87.09-.87-.39h0a1.38,1.38,0,0,1,.87-1.12H66a1.38,1.38,0,0,1,.87,1.12h0C66.9,60.05,66.51,60.44,66,60Z" transform="translate(-12.19 -20.28)"/><path class="cls-24" d="M65.21,63h-7.1c-.48.23-.87-.16-.87-.64h0a.86.86,0,0,1,.87-.86h7.1a.86.86,0,0,1,.87.86h0C66.09,62.81,65.69,63.2,65.21,63Z" transform="translate(-12.19 -20.28)"/><path class="cls-25" d="M63,66H60.33a.35.35,0,0,1-.5-.16l-.52-.89c-.23-.39.05-.87.5-1.21h3.72c.45.34.72.82.5,1.21l-.52.89A.35.35,0,0,1,63,66Z" transform="translate(-12.19 -20.28)"/><path class="cls-26" d="M66.81,39.11h0A7,7,0,0,0,69,36.69v0h0v0h0a3,3,0,0,0,.09-2.71v0a3.62,3.62,0,0,1-1.31-.6.83.83,0,0,1-.31-.95.7.7,0,0,1,1.06-.37,1.63,1.63,0,0,0,1.2.39c.26-.08.51-.35.74-.82a.72.72,0,0,1,.82-.43.79.79,0,0,1,.47,1.1,3.14,3.14,0,0,1-1.22,1.46h0a4.62,4.62,0,0,1,.08,2.91h0a3.93,3.93,0,0,0,3.07-.68,4.88,4.88,0,0,0,1.84-2.19h0a7,7,0,0,0-.69-1h0a7,7,0,0,0-3-4.59h0a3.61,3.61,0,0,0-2.44-2.61h0a4.4,4.4,0,0,1-.75,4.45,2.5,2.5,0,0,1-1.74.67,4.61,4.61,0,0,1-2.4-.81.81.81,0,0,1-.34-.91.7.7,0,0,1,1-.44c1.09.68,2,.79,2.49.31s.69-1.86.22-3.11a.83.83,0,0,1,0-.43h0a8,8,0,0,0-5.05-1.94h0V33.75h0A16.48,16.48,0,0,0,66.81,39.11Z" transform="translate(-12.19 -20.28)"/><path class="cls-27" d="M76.14,37.26a7.4,7.4,0,0,0-.22-1.78h0a6.52,6.52,0,0,1-1.75,1.75,5.43,5.43,0,0,1-3,1A4.11,4.11,0,0,1,69.79,38h0a8,8,0,0,1-1.48,1.74L68,40h0a5.7,5.7,0,0,0,3.34.75.73.73,0,0,1,.76.72.77.77,0,0,1-.67.82l-.58,0a7.5,7.5,0,0,1-4.49-1.6l-.09-.07a13,13,0,0,1-2.35-2.35,18.51,18.51,0,0,1-1.09-1.55h0V57.69H67a7.19,7.19,0,0,0,1-2.52,5.2,5.2,0,0,0-2.37-4.56h0a3.41,3.41,0,0,1-1.39.33h0A.76.76,0,0,1,63.6,50a.74.74,0,0,1,.68-.62,2,2,0,0,0,.93-.24h0l.14-.11.07-.08a1.6,1.6,0,0,0,.15-1.15.8.8,0,0,1,.37-.82.7.7,0,0,1,1,.57,3.55,3.55,0,0,1-.19,1.92h0a6.88,6.88,0,0,1,2.55,3.89h0a6.93,6.93,0,0,0,3.22-4h0a8.75,8.75,0,0,1-3.87-2.09,9.51,9.51,0,0,1-2.21-3,.81.81,0,0,1,.35-1,.68.68,0,0,1,.93.38A7.76,7.76,0,0,0,73.33,48h0a7.71,7.71,0,0,0,1.72-4.91,8,8,0,0,0-.19-1.75h0A7.26,7.26,0,0,0,76.14,37.26Z" transform="translate(-12.19 -20.28)"/><path class="cls-28" d="M51.33,20.73a8.13,8.13,0,0,0-2.13,0L48.88,22a6.94,6.94,0,0,0-1.93.7l-1.08-.79a8.12,8.12,0,0,0-1.63,1.37l.59,1.19a7,7,0,0,0-1,1.78l-1.33.09a8.16,8.16,0,0,0-.37,2.1l1.22.54a7,7,0,0,0,.36,2l-1,.92a8.17,8.17,0,0,0,1.06,1.84l1.28-.37a6.89,6.89,0,0,0,1.57,1.32l-.14,1.32a8.13,8.13,0,0,0,2,.73l.74-1.11a6.94,6.94,0,0,0,2,0L52,36.78a8.12,8.12,0,0,0,2-.73l-.14-1.32a6.9,6.9,0,0,0,1.57-1.32l1.28.37a8.18,8.18,0,0,0,1.07-1.84l-1-.92a6.92,6.92,0,0,0,.36-2l1.22-.54a8.19,8.19,0,0,0-.37-2.1l-1.33-.09a6.93,6.93,0,0,0-1-1.78l.59-1.19a8.17,8.17,0,0,0-1.63-1.37l-1.08.79a7,7,0,0,0-1.93-.7l-.32-1.29Zm-1.06,6.46a1.63,1.63,0,1,1-1.63,1.63,1.63,1.63,0,0,1,1.63-1.63Z" transform="translate(-12.19 -20.28)"/><path class="cls-29" d="M60.55,23.3h0a8.88,8.88,0,0,0-3,.67l-.2.4q.14.23.27.46l1.47.1.31,1a9.71,9.71,0,0,1,.44,2.49l0,1L58.52,30h0q0,.27-.09.53l1.06,1-.4,1a9.74,9.74,0,0,1-1.27,2.19l-.62.8-1.41-.41-.41.35.16,1.46-.79.41a9,9,0,0,0,1.81,1.79h0a16.47,16.47,0,0,0,4-5.36h0Z" transform="translate(-12.19 -20.28)"/><path class="cls-30" d="M60.54,36.67a18.63,18.63,0,0,1-1.13,1.56A13.23,13.23,0,0,1,57,40.59l-.09.07a7.85,7.85,0,0,1-4.63,1.6l-.6,0a.78.78,0,0,1-.69-.83.74.74,0,0,1,.78-.73,6,6,0,0,0,3.45-.76h0l-.33-.28a8.09,8.09,0,0,1-1.52-1.75h0a4.27,4.27,0,0,1-.78.18l-.37.11-1,.23L50.92,38a5.75,5.75,0,0,1-1.33-.46L49,38.4l-1-.23a9.77,9.77,0,0,1-1.14-.33,7.16,7.16,0,0,0,1.27,3.46h0a7.91,7.91,0,0,0-.2,1.76A7.64,7.64,0,0,0,49.7,48h0a7.94,7.94,0,0,0,5.77-4.37.7.7,0,0,1,1-.38.8.8,0,0,1,.36,1,9.56,9.56,0,0,1-2.27,3,9.08,9.08,0,0,1-4,2.1h0a7,7,0,0,0,3.32,4h0a6.9,6.9,0,0,1,2.63-3.91h0a3.49,3.49,0,0,1-.2-1.93A.72.72,0,0,1,57.33,47a.8.8,0,0,1,.38.82,1.58,1.58,0,0,0,.16,1.15l.07.08.14.11h0a2.11,2.11,0,0,0,1,.24.75.75,0,0,1,.7.62.77.77,0,0,1-.71.94h0a3.59,3.59,0,0,1-1.44-.33h0a5.18,5.18,0,0,0-2.44,4.58,7.13,7.13,0,0,0,1.06,2.53h4.36v-21Z" transform="translate(-12.19 -20.28)"/></g></svg>