<svg id="Layer_1" data-name="Layer 1" xmlns="http://www.w3.org/2000/svg" xmlns:xlink="http://www.w3.org/1999/xlink" viewBox="0 0 49.64 48.78"><defs><style>.cls-1{fill:url(#linear-gradient);}.cls-2{fill:url(#linear-gradient-2);}.cls-3{fill:url(#linear-gradient-3);}.cls-4{fill:url(#linear-gradient-4);}.cls-5{fill:url(#linear-gradient-5);}.cls-6{fill:url(#linear-gradient-6);}.cls-7{fill:url(#linear-gradient-7);}.cls-8{fill:url(#linear-gradient-8);}.cls-9{fill:url(#linear-gradient-9);}.cls-10{fill:url(#linear-gradient-10);}.cls-11{fill:url(#linear-gradient-11);}.cls-12,.cls-13,.cls-14,.cls-15,.cls-16,.cls-17,.cls-18,.cls-19,.cls-20,.cls-21,.cls-22,.cls-23,.cls-24,.cls-25,.cls-26,.cls-27,.cls-28,.cls-29{fill:none;stroke-miterlimit:10;stroke-width:0.66px;}.cls-12{stroke:url(#linear-gradient-12);}.cls-13{stroke:url(#linear-gradient-13);}.cls-14{stroke:url(#linear-gradient-14);}.cls-15{stroke:url(#linear-gradient-15);}.cls-16{stroke:url(#linear-gradient-16);}.cls-17{stroke:url(#linear-gradient-17);}.cls-18{stroke:url(#linear-gradient-18);}.cls-19{stroke:url(#linear-gradient-19);}.cls-20{stroke:url(#linear-gradient-20);}.cls-21{stroke:url(#linear-gradient-21);}.cls-22{stroke:url(#linear-gradient-22);}.cls-23{stroke:url(#linear-gradient-23);}.cls-24{stroke:url(#linear-gradient-24);}.cls-25{stroke:url(#linear-gradient-25);}.cls-26{stroke:url(#linear-gradient-26);}.cls-27{stroke:url(#linear-gradient-27);}.cls-28{stroke:url(#linear-gradient-28);}.cls-29{stroke:url(#linear-gradient-29);}</style><linearGradient id="linear-gradient" x1="19.33" y1="66.66" x2="19.33" y2="61.31" gradientUnits="userSpaceOnUse"><stop offset="0" stop-color="#1a71aa"/><stop offset="1" stop-color="#803588"/></linearGradient><linearGradient id="linear-gradient-2" x1="23.39" y1="66.66" x2="23.39" y2="61.35" xlink:href="#linear-gradient"/><linearGradient id="linear-gradient-3" x1="27.5" y1="66.66" x2="27.5" y2="61.31" xlink:href="#linear-gradient"/><linearGradient id="linear-gradient-4" x1="31.44" y1="66.66" x2="31.44" y2="61.35" xlink:href="#linear-gradient"/><linearGradient id="linear-gradient-5" x1="35.96" y1="66.75" x2="35.96" y2="61.26" xlink:href="#linear-gradient"/><linearGradient id="linear-gradient-6" x1="41.01" y1="66.66" x2="41.01" y2="61.31" xlink:href="#linear-gradient"/><linearGradient id="linear-gradient-7" x1="46.09" y1="66.66" x2="46.09" y2="61.35" xlink:href="#linear-gradient"/><linearGradient id="linear-gradient-8" x1="51.59" y1="66.66" x2="51.59" y2="61.35" xlink:href="#linear-gradient"/><linearGradient id="linear-gradient-9" x1="56.59" y1="66.66" x2="56.59" y2="61.35" xlink:href="#linear-gradient"/><linearGradient id="linear-gradient-10" x1="61.48" y1="66.74" x2="61.48" y2="61.26" xlink:href="#linear-gradient"/><linearGradient id="linear-gradient-11" x1="65.85" y1="66.66" x2="65.85" y2="61.35" xlink:href="#linear-gradient"/><linearGradient id="linear-gradient-12" x1="42.35" y1="34.12" x2="42.35" y2="31.86" xlink:href="#linear-gradient"/><linearGradient id="linear-gradient-13" x1="42.97" y1="44.89" x2="42.97" y2="23.22" xlink:href="#linear-gradient"/><linearGradient id="linear-gradient-14" x1="21" y1="32.84" x2="21" y2="30.21" xlink:href="#linear-gradient"/><linearGradient id="linear-gradient-15" x1="21" y1="2.63" x2="21" y2="0" xlink:href="#linear-gradient"/><linearGradient id="linear-gradient-16" x1="24.94" y1="2.63" x2="24.94" y2="0" xlink:href="#linear-gradient"/><linearGradient id="linear-gradient-17" x1="24.94" y1="32.84" x2="24.94" y2="30.21" xlink:href="#linear-gradient"/><linearGradient id="linear-gradient-18" x1="28.88" y1="2.63" x2="28.88" y2="0" xlink:href="#linear-gradient"/><linearGradient id="linear-gradient-19" x1="28.88" y1="32.84" x2="28.88" y2="30.21" xlink:href="#linear-gradient"/><linearGradient id="linear-gradient-20" x1="31.15" y1="27.82" x2="31.15" y2="17.97" xlink:href="#linear-gradient"/><linearGradient id="linear-gradient-21" x1="9.83" y1="13.79" x2="9.83" y2="11.16" xlink:href="#linear-gradient"/><linearGradient id="linear-gradient-22" x1="9.83" y1="17.73" x2="9.83" y2="15.1" xlink:href="#linear-gradient"/><linearGradient id="linear-gradient-23" x1="9.83" y1="21.67" x2="9.83" y2="19.04" xlink:href="#linear-gradient"/><linearGradient id="linear-gradient-24" x1="31.15" y1="50.8" x2="31.15" y2="40.95" xlink:href="#linear-gradient"/><linearGradient id="linear-gradient-25" x1="54.13" y1="27.82" x2="54.13" y2="17.97" xlink:href="#linear-gradient"/><linearGradient id="linear-gradient-26" x1="40.04" y1="13.79" x2="40.04" y2="11.16" xlink:href="#linear-gradient"/><linearGradient id="linear-gradient-27" x1="40.04" y1="17.73" x2="40.04" y2="15.1" xlink:href="#linear-gradient"/><linearGradient id="linear-gradient-28" x1="40.04" y1="21.67" x2="40.04" y2="19.04" xlink:href="#linear-gradient"/><linearGradient id="linear-gradient-29" x1="54.13" y1="50.8" x2="54.13" y2="40.95" xlink:href="#linear-gradient"/></defs><title>2</title><path class="cls-1" d="M17.7,61.41a7.93,7.93,0,0,1,1.32-.1,2.18,2.18,0,0,1,1.49.44A1.43,1.43,0,0,1,21,62.86,1.56,1.56,0,0,1,20.56,64a2.2,2.2,0,0,1-1.62.58,2.34,2.34,0,0,1-.55,0v2.13H17.7ZM18.39,64A2.28,2.28,0,0,0,19,64c.83,0,1.33-.4,1.33-1.13s-.5-1-1.25-1a2.88,2.88,0,0,0-.65.06Z" transform="translate(-17.7 -17.97)"/><path class="cls-2" d="M24.64,64.17H22.58v1.91h2.3v.57h-3V61.35h2.87v.57H22.58V63.6h2.06Z" transform="translate(-17.7 -17.97)"/><path class="cls-3" d="M25.77,61.42a7.17,7.17,0,0,1,1.32-.11,2.17,2.17,0,0,1,1.54.43,1.32,1.32,0,0,1,.42,1,1.39,1.39,0,0,1-1,1.35v0a1.32,1.32,0,0,1,.78,1.07,8.43,8.43,0,0,0,.41,1.46h-.71a6.85,6.85,0,0,1-.35-1.27c-.16-.73-.44-1-1.06-1h-.65v2.3h-.69Zm.69,2.42h.7c.73,0,1.2-.4,1.2-1s-.5-1-1.22-1a2.82,2.82,0,0,0-.68.06Z" transform="translate(-17.7 -17.97)"/><path class="cls-4" d="M30,61.35h2.86v.57H30.7v1.76h2v.57h-2v2.4H30Z" transform="translate(-17.7 -17.97)"/><path class="cls-5" d="M38.38,63.95a2.49,2.49,0,0,1-2.47,2.8,2.43,2.43,0,0,1-2.39-2.69A2.52,2.52,0,0,1,36,61.26,2.42,2.42,0,0,1,38.38,63.95ZM34.27,64c0,1.13.61,2.15,1.69,2.15s1.7-1,1.7-2.2-.55-2.16-1.69-2.16S34.27,62.87,34.27,64Z" transform="translate(-17.7 -17.97)"/><path class="cls-6" d="M39.28,61.42a7.17,7.17,0,0,1,1.32-.11,2.17,2.17,0,0,1,1.54.43,1.32,1.32,0,0,1,.42,1,1.39,1.39,0,0,1-1,1.35v0a1.32,1.32,0,0,1,.78,1.07,8.47,8.47,0,0,0,.41,1.46H42a6.84,6.84,0,0,1-.35-1.27c-.16-.73-.44-1-1.06-1H40v2.3h-.69ZM40,63.84h.7c.73,0,1.2-.4,1.2-1s-.5-1-1.22-1a2.82,2.82,0,0,0-.68.06Z" transform="translate(-17.7 -17.97)"/><path class="cls-7" d="M48,64.33c0-.74-.09-1.63-.08-2.29h0c-.18.62-.4,1.28-.67,2l-.94,2.58h-.52L44.9,64.1c-.25-.75-.46-1.43-.61-2.06h0c0,.66-.06,1.55-.1,2.35L44,66.66h-.65l.37-5.31h.87l.91,2.57c.22.65.4,1.24.54,1.79h0c.13-.54.32-1.12.56-1.79l.95-2.57h.87l.33,5.31h-.67Z" transform="translate(-17.7 -17.97)"/><path class="cls-8" d="M50.63,65l-.55,1.67h-.71l1.8-5.31H52l1.81,5.31h-.73L52.52,65Zm1.74-.54-.52-1.53c-.12-.35-.2-.66-.28-1h0c-.08.32-.17.64-.27,1l-.52,1.54Z" transform="translate(-17.7 -17.97)"/><path class="cls-9" d="M54.6,66.66V61.35h.75L57,64a15,15,0,0,1,1,1.72h0c-.06-.71-.08-1.35-.08-2.18V61.35h.65v5.31h-.69L56.2,64a16.85,16.85,0,0,1-1-1.77h0c0,.67.06,1.31.06,2.19v2.27Z" transform="translate(-17.7 -17.97)"/><path class="cls-10" d="M63.49,66.49a3.4,3.4,0,0,1-1.4.25,2.48,2.48,0,0,1-2.62-2.69,2.64,2.64,0,0,1,2.77-2.79,2.85,2.85,0,0,1,1.26.24l-.17.56a2.49,2.49,0,0,0-1.07-.22A2,2,0,0,0,60.19,64a1.93,1.93,0,0,0,2,2.13,2.75,2.75,0,0,0,1.12-.22Z" transform="translate(-17.7 -17.97)"/><path class="cls-11" d="M67.1,64.17H65v1.91h2.3v.57h-3V61.35h2.87v.57H65V63.6H67.1Z" transform="translate(-17.7 -17.97)"/><g id="CPU"><path class="cls-12" d="M42.14,32.19a2,2,0,0,0-.48,0v1.53a1.77,1.77,0,0,0,.39,0c.62,0,1-.31,1-.84S42.72,32.19,42.14,32.19Z" transform="translate(-17.7 -17.97)"/><path class="cls-13" d="M32.46,23.55v21h21v-21Zm5.34,12.08a2.91,2.91,0,0,0,1-.17l.18.91a3.34,3.34,0,0,1-1.33.22A2.46,2.46,0,0,1,34.91,34a2.63,2.63,0,0,1,2.82-2.74,3,3,0,0,1,1.27.23l-.24.93a2.52,2.52,0,0,0-1-.19,1.7,1.7,0,0,0,0,3.4Zm5.77-1.48a2.39,2.39,0,0,1-1.68.54c-.15,0-.29,0-.24,0v2H40.34V31.42a9.48,9.48,0,0,1,1.57-.11,2.48,2.48,0,0,1,1.58.41,1.51,1.51,0,0,1,.55,1.2A1.65,1.65,0,0,1,43.57,34.14Zm6,.18c0,1.59-.75,2.35-2,2.35s-1.93-.72-1.93-2.37V31.43h.66v3c0,.89.35,1.34,1,1.34s1-.43,1-1.34v-3h1.31Z" transform="translate(-17.7 -17.97)"/><rect class="cls-14" x="20.01" y="30.54" width="1.97" height="1.97"/><rect class="cls-15" x="20.01" y="0.33" width="1.97" height="1.97"/><rect class="cls-16" x="23.95" y="0.33" width="1.97" height="1.97"/><rect class="cls-17" x="23.95" y="30.54" width="1.97" height="1.97"/><rect class="cls-18" x="27.89" y="0.33" width="1.97" height="1.97"/><rect class="cls-19" x="27.89" y="30.54" width="1.97" height="1.97"/><path class="cls-20" d="M28.52,27.49V22.56a2.3,2.3,0,0,1,2.3-2.3h4.93v-2H30.82a4.27,4.27,0,0,0-4.27,4.27v4.93Z" transform="translate(-17.7 -17.97)"/><rect class="cls-21" x="8.85" y="11.49" width="1.97" height="1.97"/><rect class="cls-22" x="8.85" y="15.43" width="1.97" height="1.97"/><rect class="cls-23" x="8.85" y="19.37" width="1.97" height="1.97"/><path class="cls-24" d="M28.52,46.21V41.28h-2v4.93a4.27,4.27,0,0,0,4.27,4.27h4.93v-2H30.82A2.3,2.3,0,0,1,28.52,46.21Z" transform="translate(-17.7 -17.97)"/><path class="cls-25" d="M56.76,22.56v4.93h2V22.56a4.27,4.27,0,0,0-4.27-4.27H49.53v2h4.93A2.3,2.3,0,0,1,56.76,22.56Z" transform="translate(-17.7 -17.97)"/><rect class="cls-26" x="39.06" y="11.49" width="1.97" height="1.97"/><rect class="cls-27" x="39.06" y="15.43" width="1.97" height="1.97"/><rect class="cls-28" x="39.06" y="19.37" width="1.97" height="1.97"/><path class="cls-29" d="M56.76,41.28v4.93a2.3,2.3,0,0,1-2.3,2.3H49.53v2h4.93a4.27,4.27,0,0,0,4.27-4.27V41.28Z" transform="translate(-17.7 -17.97)"/></g></svg>