<svg id="Layer_1" data-name="Layer 1" xmlns="http://www.w3.org/2000/svg" xmlns:xlink="http://www.w3.org/1999/xlink" viewBox="0 0 38.03 55.99"><defs><style>.cls-1{fill:url(#linear-gradient);}.cls-2{fill:url(#linear-gradient-2);}.cls-3{fill:url(#linear-gradient-3);}.cls-4{fill:url(#linear-gradient-4);}.cls-5{fill:url(#linear-gradient-5);}.cls-6{fill:url(#linear-gradient-6);}.cls-7{fill:url(#linear-gradient-7);}.cls-10,.cls-11,.cls-8,.cls-9{fill:none;stroke-miterlimit:10;stroke-width:0.75px;}.cls-8{stroke:url(#linear-gradient-8);}.cls-9{stroke:url(#linear-gradient-9);}.cls-10{stroke:url(#linear-gradient-10);}.cls-11{stroke:url(#linear-gradient-11);}</style><linearGradient id="linear-gradient" x1="26.77" y1="70.23" x2="26.77" y2="64.19" gradientUnits="userSpaceOnUse"><stop offset="0" stop-color="#1a71aa"/><stop offset="1" stop-color="#803588"/></linearGradient><linearGradient id="linear-gradient-2" x1="32.41" y1="70.23" x2="32.41" y2="64.19" xlink:href="#linear-gradient"/><linearGradient id="linear-gradient-3" x1="39.1" y1="70.33" x2="39.1" y2="64.09" xlink:href="#linear-gradient"/><linearGradient id="linear-gradient-4" x1="44.2" y1="70.23" x2="44.2" y2="64.19" xlink:href="#linear-gradient"/><linearGradient id="linear-gradient-5" x1="47.5" y1="70.23" x2="47.5" y2="64.19" xlink:href="#linear-gradient"/><linearGradient id="linear-gradient-6" x1="51.66" y1="70.33" x2="51.66" y2="64.09" xlink:href="#linear-gradient"/><linearGradient id="linear-gradient-7" x1="57.7" y1="70.23" x2="57.7" y2="64.19" xlink:href="#linear-gradient"/><linearGradient id="linear-gradient-8" x1="42.52" y1="52.37" x2="42.52" y2="14.34" xlink:href="#linear-gradient"/><linearGradient id="linear-gradient-9" x1="42.52" y1="44.07" x2="42.52" y2="38.04" xlink:href="#linear-gradient"/><linearGradient id="linear-gradient-10" x1="35.44" y1="31.4" x2="35.44" y2="24.14" xlink:href="#linear-gradient"/><linearGradient id="linear-gradient-11" x1="49.6" y1="31.4" x2="49.6" y2="24.14" xlink:href="#linear-gradient"/></defs><title>3</title><path class="cls-1" d="M28.2,67.4H25.85v2.18h2.62v.65h-3.4v-6h3.26v.65H25.85v1.91H28.2Z" transform="translate(-23.5 -14.34)"/><path class="cls-2" d="M34.58,67.58c0-.84-.1-1.86-.09-2.61h0c-.21.71-.46,1.46-.76,2.3l-1.07,2.93H32l-1-2.88c-.29-.85-.53-1.63-.7-2.35h0c0,.75-.06,1.77-.12,2.67l-.16,2.59h-.74l.42-6h1l1,2.92c.25.74.46,1.41.61,2h0c.15-.61.37-1.27.64-2l1.08-2.92h1l.38,6h-.76Z" transform="translate(-23.5 -14.34)"/><path class="cls-3" d="M41.86,67.14c0,2.08-1.26,3.18-2.81,3.18a2.77,2.77,0,0,1-2.72-3.07,2.87,2.87,0,0,1,2.81-3.17A2.75,2.75,0,0,1,41.86,67.14Zm-4.69.1c0,1.29.7,2.45,1.93,2.45S41,68.55,41,67.18c0-1.2-.63-2.46-1.93-2.46S37.17,65.92,37.17,67.24Z" transform="translate(-23.5 -14.34)"/><path class="cls-4" d="M43.8,64.85H42v-.66h4.47v.66H44.59v5.38H43.8Z" transform="translate(-23.5 -14.34)"/><path class="cls-5" d="M47.89,64.19v6h-.78v-6Z" transform="translate(-23.5 -14.34)"/><path class="cls-6" d="M54.42,67.14c0,2.08-1.26,3.18-2.81,3.18a2.77,2.77,0,0,1-2.72-3.07,2.87,2.87,0,0,1,2.81-3.17A2.75,2.75,0,0,1,54.42,67.14Zm-4.69.1c0,1.29.7,2.45,1.93,2.45s1.94-1.14,1.94-2.51c0-1.2-.63-2.46-1.93-2.46S49.73,65.92,49.73,67.24Z" transform="translate(-23.5 -14.34)"/><path class="cls-7" d="M55.43,70.23v-6h.85l1.94,3.06a17.12,17.12,0,0,1,1.08,2h0c-.07-.81-.09-1.54-.09-2.48V64.19H60v6h-.79l-1.92-3.07a19.22,19.22,0,0,1-1.13-2h0c0,.76.06,1.49.06,2.49v2.58Z" transform="translate(-23.5 -14.34)"/><g id="Emotion"><path class="cls-8" d="M42.52,52A18.64,18.64,0,1,1,61.16,33.35,18.66,18.66,0,0,1,42.52,52Zm0-35.79A17.15,17.15,0,1,0,59.67,33.35,17.17,17.17,0,0,0,42.52,16.21Z" transform="translate(-23.5 -14.34)"/><path class="cls-9" d="M42.3,43.7h-.49c-3.25-.15-5.89-1.72-7.05-4.21a.75.75,0,1,1,1.35-.63c.92,2,3.08,3.22,5.77,3.35A7.71,7.71,0,0,0,49,38.78a.75.75,0,1,1,1.29.75A9.12,9.12,0,0,1,42.3,43.7Z" transform="translate(-23.5 -14.34)"/><path class="cls-10" d="M35.44,24.51a3.26,3.26,0,1,0,3.26,3.26A3.26,3.26,0,0,0,35.44,24.51Z" transform="translate(-23.5 -14.34)"/><path class="cls-11" d="M49.6,24.51a3.26,3.26,0,1,0,3.26,3.26A3.26,3.26,0,0,0,49.6,24.51Z" transform="translate(-23.5 -14.34)"/></g></svg>