<svg id="Layer_1" data-name="Layer 1" xmlns="http://www.w3.org/2000/svg" xmlns:xlink="http://www.w3.org/1999/xlink" viewBox="0 0 45.43 48.28"><defs><style>.cls-1{fill:url(#linear-gradient);}.cls-2{fill:url(#linear-gradient-2);}.cls-3{fill:url(#linear-gradient-3);}.cls-4{fill:url(#linear-gradient-4);}.cls-5{fill:url(#linear-gradient-5);}.cls-6{fill:url(#linear-gradient-6);}.cls-7{fill:url(#linear-gradient-7);}.cls-8{fill:url(#linear-gradient-8);}.cls-9{fill:url(#linear-gradient-9);}.cls-10{fill:url(#linear-gradient-10);}.cls-11,.cls-12,.cls-13,.cls-14,.cls-15{fill:none;stroke-miterlimit:10;stroke-width:0.73px;}.cls-11{fill-rule:evenodd;stroke:url(#linear-gradient-11);}.cls-12{stroke:url(#linear-gradient-12);}.cls-13{stroke:url(#linear-gradient-13);}.cls-14{stroke:url(#linear-gradient-14);}.cls-15{stroke:url(#linear-gradient-15);}</style><linearGradient id="linear-gradient" x1="25.46" y1="66.38" x2="25.46" y2="60.41" gradientUnits="userSpaceOnUse"><stop offset="0" stop-color="#1a71aa"/><stop offset="1" stop-color="#803588"/></linearGradient><linearGradient id="linear-gradient-2" x1="30.25" y1="66.38" x2="30.25" y2="60.41" xlink:href="#linear-gradient"/><linearGradient id="linear-gradient-3" x1="33.43" y1="66.38" x2="33.43" y2="60.45" xlink:href="#linear-gradient"/><linearGradient id="linear-gradient-4" x1="37.5" y1="66.47" x2="37.5" y2="60.36" xlink:href="#linear-gradient"/><linearGradient id="linear-gradient-5" x1="43.14" y1="66.38" x2="43.14" y2="60.41" xlink:href="#linear-gradient"/><linearGradient id="linear-gradient-6" x1="46.32" y1="66.38" x2="46.32" y2="60.45" xlink:href="#linear-gradient"/><linearGradient id="linear-gradient-7" x1="49.56" y1="66.38" x2="49.56" y2="60.45" xlink:href="#linear-gradient"/><linearGradient id="linear-gradient-8" x1="52.79" y1="66.38" x2="52.79" y2="60.45" xlink:href="#linear-gradient"/><linearGradient id="linear-gradient-9" x1="56.27" y1="66.38" x2="56.27" y2="60.45" xlink:href="#linear-gradient"/><linearGradient id="linear-gradient-10" x1="61.04" y1="66.38" x2="61.04" y2="60.45" xlink:href="#linear-gradient"/><linearGradient id="linear-gradient-11" x1="60.52" y1="27.9" x2="60.52" y2="27.9" xlink:href="#linear-gradient"/><linearGradient id="linear-gradient-12" x1="22.72" y1="27.11" x2="22.72" y2="21.98" xlink:href="#linear-gradient"/><linearGradient id="linear-gradient-13" x1="42.52" y1="38.72" x2="42.52" y2="18.2" xlink:href="#linear-gradient"/><linearGradient id="linear-gradient-14" x1="28.6" y1="38.72" x2="28.6" y2="21.86" xlink:href="#linear-gradient"/><linearGradient id="linear-gradient-15" x1="57.18" y1="38.72" x2="57.18" y2="25.53" xlink:href="#linear-gradient"/></defs><title>4</title><path class="cls-1" d="M23.64,60.52a8.87,8.87,0,0,1,1.47-.11,2.43,2.43,0,0,1,1.66.49,1.59,1.59,0,0,1,.52,1.24,1.75,1.75,0,0,1-.46,1.27,2.46,2.46,0,0,1-1.81.65A2.65,2.65,0,0,1,24.4,64v2.37h-.76Zm.76,2.86a2.58,2.58,0,0,0,.63.06c.92,0,1.49-.45,1.49-1.27S26,61,25.12,61a3.21,3.21,0,0,0-.72.06Z" transform="translate(-19.8 -18.2)"/><path class="cls-2" d="M28.32,60.53a7.93,7.93,0,0,1,1.47-.12,2.42,2.42,0,0,1,1.71.48A1.48,1.48,0,0,1,32,62a1.56,1.56,0,0,1-1.12,1.51v0a1.48,1.48,0,0,1,.87,1.2,9.49,9.49,0,0,0,.46,1.63h-.79A7.67,7.67,0,0,1,31,65c-.18-.82-.49-1.13-1.19-1.15h-.72v2.57h-.76Zm.76,2.7h.78c.82,0,1.34-.45,1.34-1.13S30.65,61,29.84,61a3.15,3.15,0,0,0-.76.07Z" transform="translate(-19.8 -18.2)"/><path class="cls-3" d="M33.81,60.45v5.92H33V60.45Z" transform="translate(-19.8 -18.2)"/><path class="cls-4" d="M40.21,63.35c0,2-1.24,3.12-2.75,3.12a2.72,2.72,0,0,1-2.66-3,2.81,2.81,0,0,1,2.75-3.11A2.7,2.7,0,0,1,40.21,63.35Zm-4.6.1c0,1.27.68,2.4,1.89,2.4s1.9-1.12,1.9-2.46c0-1.18-.62-2.41-1.89-2.41S35.62,62.15,35.62,63.45Z" transform="translate(-19.8 -18.2)"/><path class="cls-5" d="M41.21,60.53a7.93,7.93,0,0,1,1.47-.12,2.42,2.42,0,0,1,1.71.48A1.48,1.48,0,0,1,44.85,62a1.56,1.56,0,0,1-1.12,1.51v0a1.48,1.48,0,0,1,.87,1.2,9.49,9.49,0,0,0,.46,1.63h-.79a7.67,7.67,0,0,1-.4-1.42c-.18-.82-.49-1.13-1.19-1.15H42v2.57h-.76Zm.76,2.7h.78c.82,0,1.34-.45,1.34-1.13S43.54,61,42.73,61a3.15,3.15,0,0,0-.76.07Z" transform="translate(-19.8 -18.2)"/><path class="cls-6" d="M46.7,60.45v5.92h-.76V60.45Z" transform="translate(-19.8 -18.2)"/><path class="cls-7" d="M49.17,61.1h-1.8v-.65h4.39v.65H49.94v5.27h-.77Z" transform="translate(-19.8 -18.2)"/><path class="cls-8" d="M53.18,60.45v5.92h-.76V60.45Z" transform="translate(-19.8 -18.2)"/><path class="cls-9" d="M54.11,65.93l3.29-4.81v0h-3v-.64h4v.47l-3.27,4.79v0h3.31v.64H54.11Z" transform="translate(-19.8 -18.2)"/><path class="cls-10" d="M62.44,63.6h-2.3v2.14h2.57v.64H59.38V60.45h3.2v.64H60.14V63h2.3Z" transform="translate(-19.8 -18.2)"/><g id="Priority"><path class="cls-11" d="M60.52,27.9" transform="translate(-19.8 -18.2)"/><g id="Score"><rect class="cls-12" x="0.37" y="22.35" width="44.7" height="4.4"/><path class="cls-13" d="M37,18.56V38.35H48V18.56Zm6.6,9.53H42.15V22.23h0l-1.35.64-.27-1.24,1.87-.87h1.24Z" transform="translate(-19.8 -18.2)"/><path class="cls-14" d="M23.1,22.23V38.35h11V22.23Zm8.06,10.26H26v-1l.85-.84c1.45-1.41,2.15-2.21,2.17-3.05A1,1,0,0,0,28,26.53a2.29,2.29,0,0,0-1.42.6l-.44-1.21a3.47,3.47,0,0,1,2.17-.74,2.13,2.13,0,0,1,2.32,2.26,4.54,4.54,0,0,1-1.76,3.1l-.61.55V31h2.93Z" transform="translate(-19.8 -18.2)"/><path class="cls-15" d="M51.68,25.89V38.35h11V25.89Zm4.79,9a4.24,4.24,0,0,1-2.14-.51l.34-1.26a4,4,0,0,0,1.67.44c.87,0,1.32-.42,1.32-1,0-.71-.71-1-1.45-.86h-.87V30.29h.84c.56.08,1.28-.13,1.28-.74,0-.43-.35-.75-1.06-.75a3.28,3.28,0,0,0-1.5.43L54.56,28a4.5,4.5,0,0,1,2.22-.54c1.54,0,2.39.81,2.39,1.79,0,.76-.43,1.36-1.63,1.67v0c1.18.15,1.87.81,1.87,1.75C59.42,34,58.3,34.91,56.47,34.91Z" transform="translate(-19.8 -18.2)"/></g></g></svg>