<svg id="Layer_1" data-name="Layer 1" xmlns="http://www.w3.org/2000/svg" xmlns:xlink="http://www.w3.org/1999/xlink" viewBox="0 0 47.72 63.09"><defs><style>.cls-1{fill:url(#linear-gradient);}.cls-2{fill:url(#linear-gradient-2);}.cls-3{fill:url(#linear-gradient-3);}.cls-4{fill:url(#linear-gradient-4);}.cls-5{fill:url(#linear-gradient-5);}.cls-6{fill:url(#linear-gradient-6);}.cls-7{fill:url(#linear-gradient-7);}.cls-8,.cls-9{fill:none;stroke-miterlimit:10;stroke-width:0.86px;}.cls-8{stroke:url(#linear-gradient-8);}.cls-9{stroke:url(#linear-gradient-9);}</style><linearGradient id="linear-gradient" x1="22.45" y1="73.85" x2="22.45" y2="66.94" gradientUnits="userSpaceOnUse"><stop offset="0" stop-color="#1a71aa"/><stop offset="1" stop-color="#803588"/></linearGradient><linearGradient id="linear-gradient-2" x1="28.83" y1="73.8" x2="28.83" y2="66.75" xlink:href="#linear-gradient"/><linearGradient id="linear-gradient-3" x1="38.38" y1="73.73" x2="38.38" y2="66.8" xlink:href="#linear-gradient"/><linearGradient id="linear-gradient-4" x1="46.06" y1="73.85" x2="46.06" y2="66.69" xlink:href="#linear-gradient"/><linearGradient id="linear-gradient-5" x1="53.23" y1="73.8" x2="53.23" y2="66.75" xlink:href="#linear-gradient"/><linearGradient id="linear-gradient-6" x1="59.19" y1="73.73" x2="59.19" y2="66.8" xlink:href="#linear-gradient"/><linearGradient id="linear-gradient-7" x1="64.24" y1="73.73" x2="64.24" y2="66.8" xlink:href="#linear-gradient"/><linearGradient id="linear-gradient-8" x1="41.58" y1="56.47" x2="41.58" y2="38.79" xlink:href="#linear-gradient"/><linearGradient id="linear-gradient-9" x1="46.28" y1="43.66" x2="46.28" y2="10.76" xlink:href="#linear-gradient"/></defs><title>5</title><path class="cls-1" d="M20.61,72.7a3,3,0,0,0,1.48.42c1.16,0,1.52-.74,1.51-1.3,0-.94-.85-1.34-1.73-1.34h-.5v-.68h.5c.66,0,1.49-.34,1.49-1.13,0-.53-.34-1-1.17-1a2.46,2.46,0,0,0-1.34.44l-.24-.66a3.19,3.19,0,0,1,1.75-.51c1.32,0,1.91.78,1.91,1.59A1.66,1.66,0,0,1,23,70.1v0a1.74,1.74,0,0,1,1.49,1.72c0,1.07-.83,2-2.44,2a3.4,3.4,0,0,1-1.74-.45Z" transform="translate(-18.45 -10.76)"/><path class="cls-2" d="M26,66.9a12.75,12.75,0,0,1,1.9-.14,4,4,0,0,1,2.81.86,3.19,3.19,0,0,1,1,2.49,3.67,3.67,0,0,1-1,2.7,4.27,4.27,0,0,1-3.06,1A14.33,14.33,0,0,1,26,73.71Zm.9,6.13a5.67,5.67,0,0,0,.9.05,2.66,2.66,0,0,0,3-2.94,2.47,2.47,0,0,0-2.81-2.67,5,5,0,0,0-1,.09Z" transform="translate(-18.45 -10.76)"/><path class="cls-3" d="M40.87,70.69c-.05-1-.11-2.13-.1-3h0c-.24.81-.53,1.68-.87,2.63l-1.22,3.36H38l-1.12-3.3c-.33-1-.61-1.87-.8-2.69h0c0,.86-.07,2-.13,3.06l-.19,3h-.85l.48-6.93h1.14l1.18,3.35c.29.85.53,1.62.7,2.34h0c.18-.7.42-1.46.73-2.34l1.23-3.35h1.14l.43,6.93H41Z" transform="translate(-18.45 -10.76)"/><path class="cls-4" d="M49.22,70.2c0,2.39-1.45,3.65-3.22,3.65s-3.12-1.42-3.12-3.52,1.37-3.64,3.22-3.64S49.22,68.14,49.22,70.2Zm-5.38.11c0,1.48.8,2.81,2.21,2.81s2.22-1.31,2.22-2.88c0-1.38-.72-2.82-2.21-2.82S43.84,68.79,43.84,70.31Z" transform="translate(-18.45 -10.76)"/><path class="cls-5" d="M50.39,66.9a12.74,12.74,0,0,1,1.9-.14,4,4,0,0,1,2.81.86,3.19,3.19,0,0,1,1,2.49,3.67,3.67,0,0,1-1,2.7,4.27,4.27,0,0,1-3.07,1,14.31,14.31,0,0,1-1.62-.08ZM51.28,73a5.67,5.67,0,0,0,.91.05,2.66,2.66,0,0,0,3-2.94,2.47,2.47,0,0,0-2.81-2.67,5.05,5.05,0,0,0-1,.09Z" transform="translate(-18.45 -10.76)"/><path class="cls-6" d="M60.83,70.49H58.14V73h3v.75h-3.9V66.8H61v.75H58.14v2.19h2.69Z" transform="translate(-18.45 -10.76)"/><path class="cls-7" d="M62.31,66.8h.89V73h3v.75H62.31Z" transform="translate(-18.45 -10.76)"/><g id="Agriculture"><path class="cls-8" d="M63.69,42.05a2.75,2.75,0,0,0-2.8-.81,3.89,3.89,0,0,0-.79.33L52,46.17a3.16,3.16,0,0,1,0,2.28l-.26.63a3.41,3.41,0,0,1-3.16,2.14,3.46,3.46,0,0,1-1-.15L42,49.19A.64.64,0,0,1,42.4,48l5.48,1.87a2.13,2.13,0,0,0,2.59-1.25l.26-.63a1.89,1.89,0,0,0-1-2.43L37,39.81a.64.64,0,0,1-.38-.59H33a4,4,0,0,0-1.56.32L19.91,44.39a1.69,1.69,0,0,0-1,1.92l1.8,8.39a1.69,1.69,0,0,0,2.48,1.12l8.15-4.57a1.69,1.69,0,0,1,1.2-.17l15.27,3.42a1.74,1.74,0,0,0,1.68-.35l13.89-8.79A2.23,2.23,0,0,0,63.69,42.05Z" transform="translate(-18.45 -10.76)"/><path class="cls-9" d="M32.79,36.66h2.59l-3-2.64.57-14.44L35.68,22l8.89,7.75-.42,10.47L46,41l.3-11.13,13.86-6.61L59.66,35.8,48.89,42.32l1.9.85L60.94,37a.86.86,0,0,0,.41-.7l.57-14.41a.83.83,0,0,0,0-.08.84.84,0,0,0,0-.11.83.83,0,0,0,0-.1.85.85,0,0,0,0-.1l-.06-.09-.06-.09-.08-.08-.06-.06L48.23,11.36a.86.86,0,0,0-.8-.12L31.85,16.94h0l-.06,0-.12.07-.07.06-.09.1-.05.08-.06.12,0,.09,0,.06s0,0,0,.07,0,0,0,.05l-.65,16.64a.86.86,0,0,0,.29.68ZM47.58,12.72,59.4,21.44,45.58,28l-9.07-7.91L33.8,17.76Z" transform="translate(-18.45 -10.76)"/></g></svg>