<svg id="Layer_1" data-name="Layer 1" xmlns="http://www.w3.org/2000/svg" xmlns:xlink="http://www.w3.org/1999/xlink" viewBox="0 0 56.38 63.31"><defs><style>.cls-1{fill:url(#linear-gradient);}.cls-2{fill:url(#linear-gradient-2);}.cls-3{fill:url(#linear-gradient-3);}.cls-4{fill:url(#linear-gradient-4);}.cls-5{fill:url(#linear-gradient-5);}.cls-6{fill:url(#linear-gradient-6);}.cls-7{fill:url(#linear-gradient-7);}.cls-8{fill:url(#linear-gradient-8);}.cls-10,.cls-11,.cls-12,.cls-9{fill:none;stroke-miterlimit:10;stroke-width:0.88px;}.cls-9{stroke:url(#linear-gradient-9);}.cls-10{stroke:url(#linear-gradient-10);}.cls-11{stroke:url(#linear-gradient-11);}.cls-12{stroke:url(#linear-gradient-12);}</style><linearGradient id="linear-gradient" x1="24.14" y1="73.85" x2="24.14" y2="66.73" gradientUnits="userSpaceOnUse"><stop offset="0" stop-color="#1a71aa"/><stop offset="1" stop-color="#803588"/></linearGradient><linearGradient id="linear-gradient-2" x1="30.84" y1="73.85" x2="30.84" y2="66.73" xlink:href="#linear-gradient"/><linearGradient id="linear-gradient-3" x1="37.56" y1="73.85" x2="37.56" y2="66.73" xlink:href="#linear-gradient"/><linearGradient id="linear-gradient-4" x1="43.57" y1="73.85" x2="43.57" y2="66.73" xlink:href="#linear-gradient"/><linearGradient id="linear-gradient-5" x1="47.81" y1="73.85" x2="47.81" y2="66.73" xlink:href="#linear-gradient"/><linearGradient id="linear-gradient-6" x1="53.07" y1="73.95" x2="53.07" y2="66.61" xlink:href="#linear-gradient"/><linearGradient id="linear-gradient-7" x1="56.94" y1="73.85" x2="56.94" y2="66.73" xlink:href="#linear-gradient"/><linearGradient id="linear-gradient-8" x1="60.81" y1="73.95" x2="60.81" y2="66.61" xlink:href="#linear-gradient"/><linearGradient id="linear-gradient-9" x1="28.63" y1="29.95" x2="28.63" y2="9.69" xlink:href="#linear-gradient"/><linearGradient id="linear-gradient-10" x1="44.04" y1="43.16" x2="44.04" y2="27.31" xlink:href="#linear-gradient"/><linearGradient id="linear-gradient-11" x1="12.33" y1="43.16" x2="12.33" y2="27.31" xlink:href="#linear-gradient"/><linearGradient id="linear-gradient-12" x1="28.19" y1="15.86" x2="28.19" y2="0" xlink:href="#linear-gradient"/></defs><title>6</title><path class="cls-1" d="M22.85,71.61l-.74,2.24h-1l2.42-7.12h1.11l2.43,7.12h-1l-.76-2.24Zm2.33-.72-.7-2c-.16-.46-.26-.89-.37-1.3h0c-.11.42-.22.86-.36,1.29L23,70.89Z" transform="translate(-14.33 -10.65)"/><path class="cls-2" d="M28.17,73.85V66.73h1l2.28,3.6a20.16,20.16,0,0,1,1.28,2.31h0c-.08-1-.11-1.82-.11-2.93v-3h.87v7.12h-.93l-2.26-3.61A22.6,22.6,0,0,1,29,67.86h0c.05.9.07,1.75.07,2.94v3Z" transform="translate(-14.33 -10.65)"/><path class="cls-3" d="M36.27,71.61l-.74,2.24h-1L37,66.73h1.11l2.43,7.12h-1l-.76-2.24Zm2.33-.72-.7-2c-.16-.46-.26-.89-.37-1.3h0c-.11.42-.22.86-.36,1.29l-.7,2.06Z" transform="translate(-14.33 -10.65)"/><path class="cls-4" d="M41.59,66.73h.92v6.35h3v.77h-4Z" transform="translate(-14.33 -10.65)"/><path class="cls-5" d="M47.28,73.85v-3L45,66.73h1l1,2c.27.54.49,1,.71,1.47h0c.2-.46.44-.93.72-1.47l1-2h1l-2.39,4.09v3Z" transform="translate(-14.33 -10.65)"/><path class="cls-6" d="M51.15,72.73a3.25,3.25,0,0,0,1.65.47c.94,0,1.49-.5,1.49-1.22s-.38-1-1.34-1.42c-1.16-.41-1.88-1-1.88-2a2,2,0,0,1,2.3-1.93,3.24,3.24,0,0,1,1.57.35l-.25.75a2.83,2.83,0,0,0-1.35-.34c-1,0-1.34.58-1.34,1.07,0,.67.43,1,1.42,1.37,1.2.46,1.82,1,1.82,2.09s-.81,2-2.49,2a3.68,3.68,0,0,1-1.82-.45Z" transform="translate(-14.33 -10.65)"/><path class="cls-7" d="M57.4,66.73v7.12h-.92V66.73Z" transform="translate(-14.33 -10.65)"/><path class="cls-8" d="M58.88,72.73a3.26,3.26,0,0,0,1.65.47c.94,0,1.49-.5,1.49-1.22s-.38-1-1.34-1.42c-1.16-.41-1.88-1-1.88-2a2,2,0,0,1,2.3-1.93,3.24,3.24,0,0,1,1.57.35l-.25.75a2.83,2.83,0,0,0-1.35-.34c-1,0-1.34.58-1.34,1.07,0,.67.43,1,1.42,1.37,1.2.46,1.82,1,1.82,2.09s-.81,2-2.49,2a3.68,3.68,0,0,1-1.82-.45Z" transform="translate(-14.33 -10.65)"/><g id="Structured_Data" data-name="Structured Data"><polygon class="cls-9" points="29.51 20.7 29.51 10.13 26.87 10.13 26.87 20.7 12.77 20.7 12.77 22.07 12.77 23.45 12.77 29.51 15.42 29.51 15.42 23.34 41.84 23.34 41.84 29.51 44.48 29.51 44.48 23.45 44.48 22.07 44.48 20.7 29.51 20.7"/><polygon class="cls-10" points="45.37 27.75 45.37 31.27 40.08 31.27 40.08 27.75 32.15 27.75 32.15 42.72 55.94 42.72 55.94 27.75 45.37 27.75"/><polygon class="cls-11" points="16.3 31.27 11.01 31.27 11.01 27.75 0.44 27.75 0.44 42.72 24.23 42.72 24.23 27.75 16.3 27.75 16.3 31.27"/><polygon class="cls-12" points="25.11 8.37 30.39 8.37 30.39 15.42 40.08 15.42 40.08 0.44 16.3 0.44 16.3 15.42 25.11 15.42 25.11 8.37"/></g></svg>