<svg id="Layer_1" data-name="Layer 1" xmlns="http://www.w3.org/2000/svg" xmlns:xlink="http://www.w3.org/1999/xlink" viewBox="0 0 49 78.23"><defs><style>.cls-1{fill:url(#linear-gradient);}.cls-2{fill:url(#linear-gradient-2);}.cls-3{fill:url(#linear-gradient-3);}.cls-4{fill:url(#linear-gradient-4);}.cls-5{fill:url(#linear-gradient-5);}.cls-6{fill:url(#linear-gradient-6);}.cls-7{fill:url(#linear-gradient-7);}.cls-10,.cls-11,.cls-12,.cls-13,.cls-14,.cls-15,.cls-16,.cls-17,.cls-18,.cls-19,.cls-20,.cls-21,.cls-22,.cls-23,.cls-24,.cls-25,.cls-26,.cls-27,.cls-8,.cls-9{fill:none;stroke-miterlimit:10;}.cls-8{stroke:url(#linear-gradient-8);}.cls-9{stroke:url(#linear-gradient-9);}.cls-10{stroke:url(#linear-gradient-10);}.cls-11{stroke:url(#linear-gradient-11);}.cls-12{stroke:url(#linear-gradient-12);}.cls-13{stroke:url(#linear-gradient-13);}.cls-14{stroke:url(#linear-gradient-14);}.cls-15{stroke:url(#linear-gradient-15);}.cls-16{stroke:url(#linear-gradient-16);}.cls-17{stroke:url(#linear-gradient-17);}.cls-18{stroke:url(#linear-gradient-18);}.cls-19{stroke:url(#linear-gradient-19);}.cls-20{stroke:url(#linear-gradient-20);}.cls-21{stroke:url(#linear-gradient-21);}.cls-22{stroke:url(#linear-gradient-22);}.cls-23{stroke:url(#linear-gradient-23);}.cls-24{stroke:url(#linear-gradient-24);}.cls-25{stroke:url(#linear-gradient-25);}.cls-26{stroke:url(#linear-gradient-26);}.cls-27{stroke:url(#linear-gradient-27);}</style><linearGradient id="linear-gradient" x1="36.43" y1="92.67" x2="36.43" y2="84.45" gradientUnits="userSpaceOnUse"><stop offset="0" stop-color="#1a71aa"/><stop offset="1" stop-color="#803588"/></linearGradient><linearGradient id="linear-gradient-2" x1="40.91" y1="92.6" x2="40.91" y2="84.51" xlink:href="#linear-gradient"/><linearGradient id="linear-gradient-3" x1="46.09" y1="92.68" x2="46.09" y2="84.43" xlink:href="#linear-gradient"/><linearGradient id="linear-gradient-4" x1="56.87" y1="92.67" x2="56.87" y2="84.45" xlink:href="#linear-gradient"/><linearGradient id="linear-gradient-5" x1="64.14" y1="92.6" x2="64.14" y2="84.51" xlink:href="#linear-gradient"/><linearGradient id="linear-gradient-6" x1="69.86" y1="92.6" x2="69.86" y2="84.51" xlink:href="#linear-gradient"/><linearGradient id="linear-gradient-7" x1="75.63" y1="92.6" x2="75.63" y2="84.51" xlink:href="#linear-gradient"/><linearGradient id="linear-gradient-8" x1="60.47" y1="54.67" x2="60.47" y2="38.23" xlink:href="#linear-gradient"/><linearGradient id="linear-gradient-9" x1="55.94" y1="73.4" x2="55.94" y2="28.1" xlink:href="#linear-gradient"/><linearGradient id="linear-gradient-10" x1="75.97" y1="33.45" x2="75.97" y2="24.45" xlink:href="#linear-gradient"/><linearGradient id="linear-gradient-11" x1="42.7" y1="58.58" x2="42.7" y2="53.45" xlink:href="#linear-gradient"/><linearGradient id="linear-gradient-12" x1="72.08" y1="42.45" x2="72.08" y2="38.97" xlink:href="#linear-gradient"/><linearGradient id="linear-gradient-13" x1="75.97" y1="23.45" x2="75.97" y2="14.45" xlink:href="#linear-gradient"/><linearGradient id="linear-gradient-14" x1="77.66" y1="43.45" x2="77.66" y2="34.45" xlink:href="#linear-gradient"/><linearGradient id="linear-gradient-15" x1="65.97" y1="71.45" x2="65.97" y2="62.45" xlink:href="#linear-gradient"/><linearGradient id="linear-gradient-16" x1="55.97" y1="71.45" x2="55.97" y2="62.41" xlink:href="#linear-gradient"/><linearGradient id="linear-gradient-17" x1="75.97" y1="71.45" x2="75.97" y2="62.45" xlink:href="#linear-gradient"/><linearGradient id="linear-gradient-18" x1="55.97" y1="29.56" x2="55.97" y2="24.45" xlink:href="#linear-gradient"/><linearGradient id="linear-gradient-19" x1="45.97" y1="23.45" x2="45.97" y2="14.45" xlink:href="#linear-gradient"/><linearGradient id="linear-gradient-20" x1="45.97" y1="33.45" x2="45.97" y2="24.45" xlink:href="#linear-gradient"/><linearGradient id="linear-gradient-21" x1="65.97" y1="30.24" x2="65.97" y2="24.45" xlink:href="#linear-gradient"/><linearGradient id="linear-gradient-22" x1="55.97" y1="23.45" x2="55.97" y2="14.45" xlink:href="#linear-gradient"/><linearGradient id="linear-gradient-23" x1="35.97" y1="52.45" x2="35.97" y2="43.45" xlink:href="#linear-gradient"/><linearGradient id="linear-gradient-24" x1="35.97" y1="43.45" x2="35.97" y2="34.45" xlink:href="#linear-gradient"/><linearGradient id="linear-gradient-25" x1="35.97" y1="33.45" x2="35.97" y2="24.45" xlink:href="#linear-gradient"/><linearGradient id="linear-gradient-26" x1="43.59" y1="42.68" x2="43.59" y2="34.45" xlink:href="#linear-gradient"/><linearGradient id="linear-gradient-27" x1="35.97" y1="62.45" x2="35.97" y2="53.45" xlink:href="#linear-gradient"/></defs><title>8</title><path class="cls-1" d="M33.88,84.62a10.1,10.1,0,0,1,1.91-.17A3.34,3.34,0,0,1,38,85a1.69,1.69,0,0,1,.67,1.43,1.92,1.92,0,0,1-1.37,1.77v0a2.08,2.08,0,0,1,1.67,2,2.18,2.18,0,0,1-.68,1.62,4.06,4.06,0,0,1-2.79.76,12.23,12.23,0,0,1-1.62-.1Zm1,3.31h.95c1.1,0,1.75-.58,1.75-1.36,0-.95-.72-1.32-1.78-1.32a4.46,4.46,0,0,0-.92.07Zm0,3.87a5.55,5.55,0,0,0,.87,0c1.08,0,2.08-.4,2.08-1.57s-.95-1.56-2.09-1.56h-.86Z" transform="translate(-31.47 -14.45)"/><path class="cls-2" d="M41.43,84.51V92.6h-1V84.51Z" transform="translate(-31.47 -14.45)"/><path class="cls-3" d="M49.41,92.24a7.53,7.53,0,0,1-2.48.44,3.8,3.8,0,0,1-4.15-4.08,4.05,4.05,0,0,1,4.38-4.17,5,5,0,0,1,2,.37l-.25.85a4.19,4.19,0,0,0-1.79-.35,3,3,0,0,0-3.25,3.25A3,3,0,0,0,47,91.82a3.39,3.39,0,0,0,1.39-.22V89.19H46.74v-.84h2.66Z" transform="translate(-31.47 -14.45)"/><path class="cls-4" d="M53.55,84.62a14.93,14.93,0,0,1,2.22-.17,4.63,4.63,0,0,1,3.27,1,3.72,3.72,0,0,1,1.14,2.9A4.28,4.28,0,0,1,59,91.5a5,5,0,0,1-3.57,1.16,16.94,16.94,0,0,1-1.9-.1Zm1,7.15a6.61,6.61,0,0,0,1.05.06,3.11,3.11,0,0,0,3.44-3.43c0-1.91-1.07-3.12-3.27-3.12a5.92,5.92,0,0,0-1.22.11Z" transform="translate(-31.47 -14.45)"/><path class="cls-5" d="M62.68,90.05l-.84,2.54H60.76l2.75-8.08h1.26l2.76,8.08H66.41l-.86-2.54Zm2.65-.82-.79-2.33c-.18-.53-.3-1-.42-1.48h0c-.12.48-.25,1-.41,1.46l-.79,2.34Z" transform="translate(-31.47 -14.45)"/><path class="cls-6" d="M69.33,85.4H66.87v-.89h6v.89H70.38v7.2H69.33Z" transform="translate(-31.47 -14.45)"/><path class="cls-7" d="M74.17,90.05l-.84,2.54H72.25L75,84.51h1.26L79,92.6H77.89L77,90.05Zm2.65-.82L76,86.91c-.18-.53-.3-1-.42-1.48h0c-.12.48-.25,1-.41,1.46l-.79,2.34Z" transform="translate(-31.47 -14.45)"/><g id="Search_Database" data-name="Search Database"><g id="Magnifier"><path class="cls-8" d="M65.51,44H63V41.41a2.62,2.62,0,0,0-2.28-2.67A2.5,2.5,0,0,0,58,41.23V44H55.43a2.62,2.62,0,0,0-2.67,2.28A2.5,2.5,0,0,0,55.26,49H58v2.54a2.62,2.62,0,0,0,2.28,2.67A2.5,2.5,0,0,0,63,51.67V49h2.72a2.5,2.5,0,0,0,2.49-2.72A2.62,2.62,0,0,0,65.51,44Z" transform="translate(-31.47 -14.45)"/><path class="cls-9" d="M72.88,33.82A17.81,17.81,0,0,0,45.44,56.25L34.83,66.86a3.54,3.54,0,0,0,5,5l10.6-10.6A17.81,17.81,0,0,0,72.88,33.82ZM70.05,56.18a13.81,13.81,0,0,1-19.53,0h0a13.81,13.81,0,1,1,19.53,0Z" transform="translate(-31.47 -14.45)"/></g><path class="cls-10" d="M74.11,32.93l0,0H80V25H72V31.1A20.36,20.36,0,0,1,74.11,32.93ZM74,27h4v4H74Z" transform="translate(-31.47 -14.45)"/><path class="cls-11" d="M43.3,56a19.1,19.1,0,0,1-1-2.1H42v3.42Z" transform="translate(-31.47 -14.45)"/><path class="cls-12" d="M72,42v0Z" transform="translate(-31.47 -14.45)"/><path class="cls-13" d="M80,15H72v8h8Zm-2,6H74V17h4Z" transform="translate(-31.47 -14.45)"/><path class="cls-14" d="M80,35H75.86a20,20,0,0,1,3.68,8H80Z" transform="translate(-31.47 -14.45)"/><path class="cls-15" d="M62,65.14V71h8V63h-.49A20,20,0,0,1,62,65.14ZM68,69H64V65h4Z" transform="translate(-31.47 -14.45)"/><path class="cls-16" d="M58,65.3V69H54V65h3.55A18.38,18.38,0,0,1,52,63.22V71h8V65.44A19.53,19.53,0,0,1,58,65.3Z" transform="translate(-31.47 -14.45)"/><path class="cls-17" d="M72,71h8V63H72Zm2-6h4v4H74Z" transform="translate(-31.47 -14.45)"/><path class="cls-18" d="M54,28V27h4v.18A19.38,19.38,0,0,1,60,27V25H52v3.83A19.08,19.08,0,0,1,54,28Z" transform="translate(-31.47 -14.45)"/><path class="cls-19" d="M50,15H42v8h8Zm-2,6H44V17h4Z" transform="translate(-31.47 -14.45)"/><path class="cls-20" d="M46.58,32.93A20.28,20.28,0,0,1,50,30.21V25H42v8h4.59ZM44,27h4v4H44Z" transform="translate(-31.47 -14.45)"/><path class="cls-21" d="M64,27.31V27h4V28.4a19.09,19.09,0,0,1,2,1V25H62V27A19.44,19.44,0,0,1,64,27.31Z" transform="translate(-31.47 -14.45)"/><path class="cls-22" d="M60,15H52v8h8Zm-2,6H54V17h4Z" transform="translate(-31.47 -14.45)"/><path class="cls-23" d="M40,44H32v8h8Zm-2,6H34V46h4Z" transform="translate(-31.47 -14.45)"/><path class="cls-24" d="M40,35H32v8h8Zm-2,6H34V37h4Z" transform="translate(-31.47 -14.45)"/><path class="cls-25" d="M40,25H32v8h8Zm-2,6H34V27h4Z" transform="translate(-31.47 -14.45)"/><path class="cls-26" d="M44.7,35H42V39.9A19.2,19.2,0,0,1,44.7,35Z" transform="translate(-31.47 -14.45)"/><path class="cls-27" d="M32,54v8h5.89L40,59.84V54Zm6,6H34V56h4Z" transform="translate(-31.47 -14.45)"/></g></svg>