<svg id="Layer_1" data-name="Layer 1" xmlns="http://www.w3.org/2000/svg" xmlns:xlink="http://www.w3.org/1999/xlink" viewBox="0 0 75.99 80.19"><defs><style>.cls-1{fill:url(#linear-gradient);}.cls-2{fill:url(#linear-gradient-2);}.cls-3{fill:url(#linear-gradient-3);}.cls-4{fill:url(#linear-gradient-4);}.cls-5{fill:url(#linear-gradient-5);}.cls-6{fill:url(#linear-gradient-6);}.cls-7{fill:url(#linear-gradient-7);}.cls-8{fill:url(#linear-gradient-8);}.cls-9{fill:url(#linear-gradient-9);}.cls-10{fill:url(#linear-gradient-10);}.cls-11{fill:url(#linear-gradient-11);}.cls-12{fill:url(#linear-gradient-12);}.cls-13,.cls-14,.cls-15,.cls-16,.cls-17,.cls-18,.cls-19{fill:none;stroke-miterlimit:10;}.cls-13{stroke:url(#linear-gradient-13);}.cls-14{stroke:url(#linear-gradient-14);}.cls-15{stroke:url(#linear-gradient-15);}.cls-16{stroke:url(#linear-gradient-16);}.cls-17{stroke:url(#linear-gradient-17);}.cls-18{stroke:url(#linear-gradient-18);}.cls-19{stroke:url(#linear-gradient-19);}</style><linearGradient id="linear-gradient" x1="30.32" y1="88.96" x2="30.32" y2="80.88" gradientUnits="userSpaceOnUse"><stop offset="0" stop-color="#1a71aa"/><stop offset="1" stop-color="#803588"/></linearGradient><linearGradient id="linear-gradient-2" x1="37.53" y1="88.96" x2="37.53" y2="80.82" xlink:href="#linear-gradient"/><linearGradient id="linear-gradient-3" x1="43.98" y1="89.08" x2="43.98" y2="80.74" xlink:href="#linear-gradient"/><linearGradient id="linear-gradient-4" x1="51.35" y1="88.96" x2="51.35" y2="80.88" xlink:href="#linear-gradient"/><linearGradient id="linear-gradient-5" x1="56.69" y1="88.96" x2="56.69" y2="80.88" xlink:href="#linear-gradient"/><linearGradient id="linear-gradient-6" x1="61.11" y1="88.96" x2="61.11" y2="80.88" xlink:href="#linear-gradient"/><linearGradient id="linear-gradient-7" x1="67.27" y1="88.96" x2="67.27" y2="80.88" xlink:href="#linear-gradient"/><linearGradient id="linear-gradient-8" x1="73.5" y1="89.08" x2="73.5" y2="80.74" xlink:href="#linear-gradient"/><linearGradient id="linear-gradient-9" x1="80.27" y1="88.96" x2="80.27" y2="80.88" xlink:href="#linear-gradient"/><linearGradient id="linear-gradient-10" x1="87.13" y1="89.09" x2="87.13" y2="80.88" xlink:href="#linear-gradient"/><linearGradient id="linear-gradient-11" x1="94.56" y1="88.96" x2="94.56" y2="80.82" xlink:href="#linear-gradient"/><linearGradient id="linear-gradient-12" x1="100.66" y1="88.96" x2="100.66" y2="80.88" xlink:href="#linear-gradient"/><linearGradient id="linear-gradient-13" x1="36.23" y1="63.34" x2="36.23" y2="39.39" xlink:href="#linear-gradient"/><linearGradient id="linear-gradient-14" x1="36.23" y1="54.24" x2="36.23" y2="30.3" xlink:href="#linear-gradient"/><linearGradient id="linear-gradient-15" x1="61.88" y1="27.8" x2="61.88" y2="22.31" gradientTransform="translate(38.29 -37.4) rotate(47.26)" xlink:href="#linear-gradient"/><linearGradient id="linear-gradient-16" x1="57.37" y1="35.62" x2="57.37" y2="31.14" gradientTransform="translate(42.98 -31.42) rotate(47.28)" xlink:href="#linear-gradient"/><linearGradient id="linear-gradient-17" x1="63.17" y1="44.96" x2="63.17" y2="8.91" xlink:href="#linear-gradient"/><linearGradient id="linear-gradient-18" x1="74.18" y1="27.59" x2="74.18" y2="23.11" gradientTransform="translate(42.42 -46.32) rotate(47.23)" xlink:href="#linear-gradient"/><linearGradient id="linear-gradient-19" x1="36.23" y1="45.15" x2="36.23" y2="21.2" xlink:href="#linear-gradient"/></defs><title>9</title><path class="cls-1" d="M28.86,86.42,28,89H26.94l2.75-8.08h1.26L33.7,89H32.59l-.86-2.54Zm2.65-.82-.79-2.33c-.18-.53-.3-1-.42-1.48h0c-.12.48-.25,1-.41,1.46l-.79,2.34Z" transform="translate(-26.94 -8.91)"/><path class="cls-2" d="M34.89,81a10.87,10.87,0,0,1,2-.17,3.3,3.3,0,0,1,2.34.66A2,2,0,0,1,39.87,83a2.12,2.12,0,0,1-1.52,2.06v0a2,2,0,0,1,1.19,1.63A12.9,12.9,0,0,0,40.16,89H39.08A10.41,10.41,0,0,1,38.54,87c-.24-1.12-.67-1.54-1.62-1.57h-1V89h-1Zm1,3.68H37c1.12,0,1.82-.61,1.82-1.54s-.76-1.5-1.86-1.51a4.3,4.3,0,0,0-1,.1Z" transform="translate(-26.94 -8.91)"/><path class="cls-3" d="M47,88.7a5.17,5.17,0,0,1-2.13.38,3.78,3.78,0,0,1-4-4.09,4,4,0,0,1,4.22-4.25A4.33,4.33,0,0,1,47,81.1l-.25.85a3.79,3.79,0,0,0-1.63-.34A3,3,0,0,0,42,85a2.94,2.94,0,0,0,3.11,3.25,4.19,4.19,0,0,0,1.7-.34Z" transform="translate(-26.94 -8.91)"/><path class="cls-4" d="M49.39,80.88v3.38H53.3V80.88h1.06V89H53.3V85.17H49.39V89h-1V80.88Z" transform="translate(-26.94 -8.91)"/><path class="cls-5" d="M57.21,80.88V89h-1V80.88Z" transform="translate(-26.94 -8.91)"/><path class="cls-6" d="M60.57,81.76H58.11v-.89h6v.89H61.63V89H60.57Z" transform="translate(-26.94 -8.91)"/><path class="cls-7" d="M69.19,85.17H66v2.92h3.5V89H65V80.88h4.37v.88H66v2.55h3.14Z" transform="translate(-26.94 -8.91)"/><path class="cls-8" d="M76.55,88.7a5.17,5.17,0,0,1-2.13.38,3.78,3.78,0,0,1-4-4.09,4,4,0,0,1,4.22-4.25,4.33,4.33,0,0,1,1.92.36l-.25.85a3.79,3.79,0,0,0-1.63-.34A3,3,0,0,0,71.53,85a2.94,2.94,0,0,0,3.11,3.25,4.19,4.19,0,0,0,1.7-.34Z" transform="translate(-26.94 -8.91)"/><path class="cls-9" d="M79.74,81.76H77.28v-.89h6v.89H80.79V89H79.74Z" transform="translate(-26.94 -8.91)"/><path class="cls-10" d="M85.21,80.88v4.79c0,1.81.8,2.58,1.88,2.58s2-.79,2-2.58V80.88h1.06v4.71c0,2.48-1.31,3.5-3.06,3.5s-2.9-.95-2.9-3.45V80.88Z" transform="translate(-26.94 -8.91)"/><path class="cls-11" d="M91.93,81a10.87,10.87,0,0,1,2-.17,3.3,3.3,0,0,1,2.34.66A2,2,0,0,1,96.91,83a2.12,2.12,0,0,1-1.52,2.06v0a2,2,0,0,1,1.19,1.63A12.91,12.91,0,0,0,97.19,89H96.11A10.42,10.42,0,0,1,95.57,87c-.24-1.12-.67-1.54-1.62-1.57H93V89h-1Zm1,3.68H94c1.12,0,1.82-.61,1.82-1.54s-.76-1.5-1.86-1.51a4.3,4.3,0,0,0-1,.1Z" transform="translate(-26.94 -8.91)"/><path class="cls-12" d="M102.57,85.17H99.43v2.92h3.5V89H98.38V80.88h4.37v.88H99.43v2.55h3.14Z" transform="translate(-26.94 -8.91)"/><g id="Layers"><g id="Layers-2" data-name="Layers"><polygon class="cls-13" points="54.92 40.89 60.61 44.34 36.23 60.96 11.86 44.34 17.55 40.89 16.22 39.99 9.16 44.26 36.23 62.73 63.31 44.26 56.25 39.99 54.92 40.89"/><polygon class="cls-14" points="54.92 31.8 60.61 35.24 36.23 51.87 11.86 35.24 17.55 31.8 16.22 30.89 9.16 35.17 36.23 53.64 63.31 35.17 56.25 30.89 54.92 31.8"/><ellipse class="cls-15" cx="61.88" cy="25.06" rx="2.17" ry="2.33" transform="translate(-25.46 44.6) rotate(-47.26)"/><ellipse class="cls-16" cx="57.37" cy="33.38" rx="1.68" ry="1.8" transform="translate(-33.01 43.98) rotate(-47.28)"/><path class="cls-17" d="M63.17,9.49,36.1,25.89,63.17,44.35,90.25,25.89ZM59,13.44a1.51,1.51,0,1,1,.15,2.06A1.46,1.46,0,0,1,59,13.44ZM61.67,20a.48.48,0,0,1-.44.56.57.57,0,0,1-.59-.48l-.41-2.86a.48.48,0,0,1,.44-.56.56.56,0,0,1,.59.48Zm-6.33,4.16,1.94.13a.56.56,0,0,1,.52.55.48.48,0,0,1-.52.48l-1.94-.12A.56.56,0,0,1,55,25.1a.56.56,0,0,1-.18-.4A.48.48,0,0,1,55.34,24.21Zm-1.48,1.46a1.51,1.51,0,1,1-.15-2.06A1.46,1.46,0,0,1,53.86,25.67Zm18.47,2a3,3,0,0,1-.83-1.33l-6.42,0a3,3,0,0,1-.7,1.34,2.93,2.93,0,0,1-.95.67l2.3,7.28a1.54,1.54,0,0,1,.87.4,1.41,1.41,0,1,1-2.06,0l.19-.17-2.29-7.27a3.4,3.4,0,0,1-1.79-.31l-1.6,3.29.15.11a2.69,2.69,0,1,1-3.93,0,2.67,2.67,0,0,1,2.84-.66l1.64-3.35,0,0A3.18,3.18,0,1,1,64,23.06a3.51,3.51,0,0,1,1.12,2.26l6.22,0A2.55,2.55,0,0,1,72,23.73a2.88,2.88,0,1,1,.29,3.92Z" transform="translate(-26.94 -8.91)"/><ellipse class="cls-18" cx="74.18" cy="25.35" rx="1.68" ry="1.8" transform="translate(-21.74 53.68) rotate(-47.23)"/><polygon class="cls-19" points="54.92 22.7 60.61 26.15 36.23 42.77 11.86 26.15 17.55 22.7 16.22 21.8 9.16 26.07 36.23 44.54 63.31 26.07 56.25 21.8 54.92 22.7"/></g></g></svg>