<svg id="Layer_1" data-name="Layer 1" xmlns="http://www.w3.org/2000/svg" viewBox="0 0 29.01 31.97"><defs><style>.cls-1{fill:#f2f2f2;}</style></defs><title>logo</title><path class="cls-1" d="M73,64.62s-6.88-11.43-7-11.69a1.31,1.31,0,0,1-.08-1.42c.13-.26,7.06-11.66,7.06-11.66a2.34,2.34,0,1,0-4-2.42L62.06,48.81a2.18,2.18,0,0,1-1.73,1.06c-.4,0-13.76.79-13.76.79a2.34,2.34,0,0,0,.27,4.68L60,54.64a1.77,1.77,0,0,1,1.91.68c.31.42,7.14,11.89,7.14,11.89A2.34,2.34,0,0,0,73,64.62" transform="translate(-44.37 -36.28)"/></svg>